<?xml version="1.0" standalone="no"?>
<!DOCTYPE svg PUBLIC "-//W3C//DTD SVG 20010904//EN"
 "http://www.w3.org/TR/2001/REC-SVG-20010904/DTD/svg10.dtd">
<svg version="1.0" xmlns="http://www.w3.org/2000/svg"
 width="770.000000pt" height="407.000000pt" viewBox="0 0 770.000000 407.000000"
 preserveAspectRatio="xMidYMid meet">

<g transform="translate(0.000000,407.000000) scale(0.100000,-0.100000)"
fill="#000000" stroke="none">
<path d="M0 3431 l0 -640 23 -4 22 -4 -22 -2 -23 -1 0 -303 c0 -282 1 -305 19
-325 10 -12 26 -22 35 -22 10 0 24 -7 33 -15 14 -14 13 -15 -11 -9 -22 5 -25
3 -20 -10 5 -12 0 -19 -13 -22 -30 -8 -42 -104 -43 -346 l-1 -208 56 0 55 0 0
-69 c0 -37 -3 -89 -6 -115 -6 -40 -9 -44 -22 -34 -12 11 -17 9 -30 -10 -8 -12
-20 -22 -27 -22 -7 0 -15 -10 -19 -22 -10 -40 -7 -745 4 -728 8 13 10 12 10
-2 0 -10 -4 -18 -10 -18 -6 0 -10 -90 -10 -251 l0 -250 230 3 c148 2 233 7
238 14 9 13 54 44 64 44 4 0 4 -8 1 -17 -6 -16 -5 -16 10 -5 9 8 15 19 14 25
-1 5 17 16 40 23 37 11 43 11 43 -2 0 -8 -4 -14 -8 -14 -4 0 -6 -16 -4 -35 l4
-35 149 0 149 0 0 37 c0 20 8 45 17 55 13 15 14 21 5 27 -10 6 -10 11 2 21 9
7 13 17 10 22 -4 6 -10 5 -15 -3 -6 -10 -9 -6 -9 14 0 16 -5 27 -14 27 -27 0
-5 36 32 54 20 10 53 27 73 37 28 14 43 17 60 10 13 -5 18 -10 12 -10 -7 -1
-13 -8 -13 -16 0 -13 4 -14 20 -5 11 6 20 18 20 26 0 9 6 22 14 29 18 18 23 5
21 -47 -1 -21 2 -38 7 -38 5 0 6 -4 3 -10 -3 -5 -2 -10 4 -10 14 0 19 23 9 43
-12 23 -3 47 16 47 8 0 17 8 20 18 7 21 46 47 55 35 14 -20 31 -12 31 15 0 28
3 31 65 61 6 3 5 -1 -1 -10 -12 -15 -5 -59 11 -62 5 -1 10 15 10 36 2 42 8 52
28 44 10 -4 16 -38 21 -132 6 -123 6 -127 -16 -146 l-23 -20 28 5 c25 6 27 4
27 -28 0 -34 -20 -62 -35 -48 -5 4 -5 1 -1 -6 6 -9 11 -10 21 -2 9 8 17 6 29
-5 21 -21 20 -31 -1 -45 -17 -11 -17 -11 0 -6 9 3 17 1 17 -4 0 -6 152 -10
410 -10 267 0 410 3 410 10 0 6 8 10 18 10 14 0 14 -2 3 -9 -9 -6 88 -10 247
-10 169 -1 262 3 262 9 0 5 -8 10 -17 10 -13 0 -14 3 -6 11 8 8 20 7 44 -5 18
-9 41 -14 51 -10 10 3 18 1 18 -5 0 -7 33 -11 90 -11 81 0 89 2 84 18 -5 16
-5 16 9 -1 13 -16 43 -17 406 -17 215 1 391 4 391 7 0 4 -9 17 -21 29 l-20 21
36 -1 c19 -1 41 -8 48 -15 10 -11 7 -13 -15 -9 -35 6 -36 -9 -2 -24 21 -10 27
-9 35 3 8 10 12 11 16 2 4 -10 397 -13 1859 -13 l1854 0 0 2035 0 2035 -3850
0 -3850 0 0 -639z m3360 329 c41 -5 138 -14 215 -20 77 -6 155 -16 173 -21 31
-10 32 -12 32 -70 0 -48 -4 -61 -17 -66 -10 -4 -23 -13 -29 -21 -9 -12 -26
-13 -110 -3 -54 6 -188 11 -297 10 -180 -1 -199 0 -211 16 -13 18 -14 18 -25
-3 -11 -20 -81 -74 -126 -97 -29 -15 -25 -37 10 -55 36 -18 130 -19 335 -3
131 11 159 17 297 62 83 28 159 51 168 51 34 0 9 -36 -44 -61 l-53 -26 0 -59
c0 -32 1 -62 1 -66 1 -3 63 14 138 38 76 23 139 41 141 39 9 -8 -10 -24 -41
-33 -174 -54 -237 -75 -238 -81 -1 -3 -3 -23 -4 -44 -1 -20 -4 -39 -6 -42 -12
-11 -49 28 -49 51 0 24 -3 25 -47 22 l-48 -3 -3 -47 -3 -48 38 0 c63 0 199 27
351 71 142 40 195 47 137 17 -91 -46 -402 -109 -538 -110 -43 0 -59 -4 -66
-16 -12 -24 -35 -152 -28 -159 9 -9 57 44 57 64 1 10 10 29 20 42 17 19 23 21
35 11 22 -18 18 -43 -11 -75 -31 -34 -44 -66 -44 -111 0 -52 26 -43 54 19 13
28 27 63 31 77 13 45 34 68 67 75 18 4 50 16 71 27 62 31 71 9 37 -93 -28 -81
-21 -95 14 -28 41 79 65 109 86 109 22 0 29 -17 36 -89 4 -38 1 -69 -10 -96
l-15 -40 0 103 c-1 74 -4 102 -13 102 -7 0 -31 -35 -52 -78 -50 -97 -74 -132
-91 -132 -28 0 -27 47 1 129 16 44 26 82 24 85 -7 6 -107 -26 -118 -39 -5 -6
-19 -41 -31 -80 -28 -86 -46 -115 -70 -115 -28 0 -46 28 -46 71 0 43 1 43 -25
29 -15 -8 -19 -28 -25 -129 -7 -123 -19 -157 -44 -127 -9 11 -9 43 -2 127 5
63 8 115 6 117 -2 2 -19 -2 -39 -9 -27 -10 -38 -22 -51 -55 -21 -56 -36 -68
-61 -49 -16 12 -17 17 -6 32 70 101 70 122 1 183 -46 41 -51 49 -51 86 l1 41
-77 6 c-42 3 -103 15 -135 26 -71 25 -79 30 -71 43 4 6 10 6 17 -1 19 -19 37
-12 37 13 0 19 -11 29 -56 51 -85 42 -90 82 -6 52 58 -21 73 -21 66 -2 -4 8
-12 15 -18 15 -27 0 -89 58 -102 95 -12 36 -11 40 16 80 16 23 52 63 80 88 42
38 54 44 77 38 15 -4 28 -12 30 -18 2 -6 -23 -40 -56 -76 -34 -35 -61 -67 -61
-71 0 -16 24 -3 52 30 18 20 52 45 76 55 35 15 43 23 37 37 -4 9 -10 38 -12
64 -5 47 -5 47 28 52 19 3 59 10 89 15 73 12 111 12 200 1z m770 -487 l0 -45
38 7 c20 4 41 7 46 8 5 1 10 -3 13 -9 4 -12 -46 -34 -77 -34 -12 0 -20 -10
-23 -32 -11 -63 -20 -246 -13 -274 l7 -27 55 54 c47 46 54 59 54 91 0 45 20
97 44 117 22 19 28 10 33 -50 3 -43 0 -56 -22 -84 -26 -36 -32 -60 -15 -70 13
-8 34 41 56 129 20 81 33 96 84 96 78 0 85 -20 50 -132 -38 -122 -18 -103 40
37 47 113 50 118 74 109 16 -6 17 -17 11 -110 -4 -57 -5 -104 -3 -104 5 0 12
18 54 137 15 40 17 42 52 40 25 -2 58 7 104 30 37 18 73 33 80 33 7 -1 -23
-19 -67 -42 -44 -22 -83 -46 -87 -52 -4 -6 -8 -30 -8 -54 0 -46 -20 -105 -40
-117 -21 -13 -38 22 -34 68 l4 42 -14 -30 c-9 -16 -15 -37 -16 -45 0 -8 -7
-24 -15 -34 -12 -16 -17 -17 -30 -6 -17 14 -19 82 -6 163 13 77 -5 64 -33 -24
-32 -102 -71 -171 -94 -167 -25 5 -26 63 -4 151 11 42 17 78 14 81 -10 11 -58
6 -70 -6 -7 -7 -12 -20 -12 -29 0 -32 -40 -147 -59 -171 l-19 -23 -26 24 -25
23 -53 -51 c-29 -28 -56 -51 -60 -51 -4 0 -15 12 -24 26 -15 22 -16 44 -11
157 3 73 9 140 12 149 5 12 0 17 -16 20 -32 4 -37 28 -6 28 22 0 25 5 32 55 8
65 25 64 25 -2z m480 -23 c0 -5 -4 -10 -10 -10 -5 0 -10 5 -10 10 0 6 5 10 10
10 6 0 10 -4 10 -10z m-590 -100 c0 -5 -11 -20 -25 -34 -33 -33 -32 -54 5
-104 17 -23 30 -53 30 -66 0 -34 -32 -86 -52 -86 -23 0 -23 18 2 55 27 40 25
67 -5 95 -32 30 -34 86 -4 124 20 25 49 35 49 16z m-1000 -715 c0 -9 -9 -15
-25 -15 -24 0 -32 10 -18 23 12 13 43 7 43 -8z m666 -93 c-22 -5 -30 3 -21 18
5 8 11 7 22 -2 15 -12 14 -13 -1 -16z m3454 8 c0 -5 -4 -10 -10 -10 -5 0 -10
5 -10 10 0 6 5 10 10 10 6 0 10 -4 10 -10z m-4140 -4 c0 -3 -4 -8 -10 -11 -5
-3 -10 -1 -10 4 0 6 5 11 10 11 6 0 10 -2 10 -4z m272 -21 c3 -14 1 -25 -3
-25 -5 0 -9 11 -9 25 0 14 2 25 4 25 2 0 6 -11 8 -25z m3448 16 c0 -5 8 -12
18 -14 10 -3 6 -5 -10 -6 -19 -1 -28 4 -28 14 0 8 5 15 10 15 6 0 10 -4 10 -9z
m-158 -23 c-7 -7 -12 -8 -12 -2 0 14 12 26 19 19 2 -3 -1 -11 -7 -17z m-3975
-20 c-3 -8 -6 -5 -6 6 -1 11 2 17 5 13 3 -3 4 -12 1 -19z m3483 12 c0 -5 -12
-10 -27 -10 -22 0 -25 2 -13 10 20 13 40 13 40 0z m-3293 -42 c-3 -8 -6 -5 -6
6 -1 11 2 17 5 13 3 -3 4 -12 1 -19z m1126 -3 c4 -8 2 -17 -3 -20 -6 -4 -10 3
-10 14 0 25 6 27 13 6z m-133 -5 c0 -5 -4 -10 -10 -10 -5 0 -10 5 -10 10 0 6
5 10 10 10 6 0 10 -4 10 -10z m2233 3 c-7 -2 -19 -2 -25 0 -7 3 -2 5 12 5 14
0 19 -2 13 -5z m-870 -18 c1 -5 -6 -11 -15 -13 -11 -2 -18 3 -18 13 0 17 30
18 33 0z m-1856 -17 c-3 -8 -6 -5 -6 6 -1 11 2 17 5 13 3 -3 4 -12 1 -19z
m3363 2 c0 -5 -6 -10 -14 -10 -8 0 -18 5 -21 10 -3 6 3 10 14 10 12 0 21 -4
21 -10z m-241 -43 c10 3 22 0 25 -6 5 -7 -4 -11 -23 -11 -26 0 -31 4 -30 23 1
15 3 17 6 6 2 -11 11 -15 22 -12z m-1246 6 c-7 -2 -19 -2 -25 0 -7 3 -2 5 12
5 14 0 19 -2 13 -5z m-4617 -67 c38 -19 63 -46 45 -46 -8 0 -10 -8 -5 -22 3
-13 3 -20 -1 -16 -5 5 -25 -10 -46 -32 -21 -22 -46 -40 -55 -40 -10 0 -27 -9
-39 -20 -18 -17 -25 -18 -53 -8 -20 8 -32 19 -32 31 0 15 -6 18 -37 15 -37 -3
-38 -2 -39 32 -1 19 3 52 8 73 7 30 13 37 33 37 14 0 25 5 25 11 0 17 158 5
196 -15z m408 -20 c22 -12 40 -25 39 -29 -2 -4 -4 -28 -4 -54 -2 -47 -2 -47
-9 -13 -6 30 -8 31 -9 8 0 -14 -5 -28 -9 -30 -4 -1 -18 -18 -30 -35 -13 -18
-26 -32 -30 -31 -7 2 -59 -9 -94 -18 -12 -4 -18 0 -18 10 0 12 -5 14 -25 6
-25 -9 -25 -9 -27 53 0 34 -2 75 -3 90 -2 33 17 57 46 57 10 0 19 3 19 8 0 15
113 -1 154 -22z m-266 7 c-16 -2 -40 -2 -55 0 -16 2 -3 4 27 4 30 0 43 -2 28
-4z m633 -24 c16 -11 27 -24 24 -29 -3 -4 -6 -27 -7 -50 -1 -26 -4 -36 -10
-28 -6 9 -10 7 -14 -10 -5 -17 -9 -20 -15 -11 -6 11 -9 10 -15 -4 -8 -22 -36
-22 -32 1 2 12 -4 17 -22 17 -18 0 -25 -6 -26 -20 -1 -11 -3 -33 -4 -50 -1
-18 -4 -23 -7 -12 -6 22 -39 22 -52 0 -11 -20 -11 -17 -14 117 -2 81 -1 85 21
88 12 2 22 8 22 14 0 19 118 1 151 -23z m294 -4 c28 -13 31 -18 33 -70 3 -65
-9 -96 -19 -50 l-7 30 -1 -31 c-1 -36 -20 -55 -56 -58 -14 0 -25 -4 -25 -8 0
-12 -28 -9 -32 3 -3 8 -10 6 -21 -5 -22 -22 -24 -14 -30 89 -5 92 -2 105 23
105 10 0 21 4 25 9 7 12 70 4 110 -14z m283 -13 c19 -12 22 -21 18 -56 -3 -22
-5 -57 -6 -76 -2 -32 -3 -33 -9 -10 l-7 25 -7 -27 c-7 -26 -37 -40 -37 -18 0
6 -7 10 -15 10 -8 0 -15 -5 -15 -12 0 -9 -3 -9 -12 0 -19 19 -38 14 -48 -10
-6 -16 -9 8 -9 80 -1 95 0 102 18 102 11 0 22 4 25 8 7 12 78 1 104 -16z m209
3 c49 -15 51 -16 56 -58 3 -23 7 -54 9 -68 3 -14 -1 -34 -8 -43 -11 -15 -13
-14 -19 14 -5 23 -10 29 -18 21 -16 -16 -27 -14 -27 5 0 8 -4 13 -10 9 -5 -3
-18 3 -30 15 -25 25 -30 25 -30 0 0 -37 -20 -20 -21 18 0 20 -2 47 -3 60 -2
15 3 22 15 22 10 0 21 5 24 10 8 12 2 13 62 -5z m-122 -5 c4 -6 -7 -10 -27
-10 -25 0 -29 3 -18 10 19 13 37 13 45 0z m235 0 c12 -8 11 -10 -7 -10 -12 0
-25 -4 -28 -10 -4 -6 6 -10 21 -10 20 0 25 -3 17 -11 -16 -16 -53 -1 -53 21 0
16 11 27 30 29 3 0 12 -4 20 -9z m141 -6 c10 -9 23 -13 30 -8 19 12 151 13
172 2 11 -6 23 -6 30 0 16 12 147 6 160 -7 6 -6 17 -7 26 -2 23 12 130 12 152
1 11 -6 20 -7 24 -1 3 6 36 8 73 5 37 -2 115 -5 174 -7 101 -2 145 -12 102
-23 -16 -4 -20 -15 -22 -55 -2 -62 -10 -76 -27 -52 -11 15 -15 15 -29 4 -14
-11 -16 -11 -16 3 0 9 -7 19 -15 22 -10 4 -15 20 -15 45 0 36 -2 39 -27 38
l-28 -1 25 -8 c23 -7 23 -8 3 -9 -22 -1 -25 -9 -36 -116 -3 -27 -4 -28 -12
-10 -5 11 -13 23 -19 27 -7 5 -7 8 2 8 6 0 12 4 12 8 0 13 -46 8 -63 -7 -15
-12 -17 -9 -17 40 0 30 -5 61 -10 69 -8 13 -10 12 -10 -2 0 -11 -8 -18 -19
-18 -16 0 -19 -8 -20 -61 0 -34 -3 -65 -7 -68 -8 -8 -35 30 -29 40 13 19 -19
19 -37 -1 -28 -30 -41 -14 -46 60 -3 47 -8 60 -21 59 -10 0 -11 -2 -3 -6 19
-8 14 -23 -9 -23 -16 0 -19 -4 -14 -20 4 -11 2 -20 -4 -20 -6 0 -11 -21 -11
-50 0 -28 -5 -50 -10 -50 -6 0 -10 6 -9 13 6 36 -35 64 -47 32 -8 -20 -24 -19
-24 0 0 9 7 18 15 21 24 9 5 26 -21 20 -22 -6 -24 -3 -24 31 0 41 -14 72 -27
60 -4 -5 -1 -12 7 -17 11 -7 6 -10 -20 -11 -19 0 -29 -3 -22 -6 6 -2 12 -11
12 -19 0 -8 -6 -14 -12 -15 -7 0 -4 -4 7 -9 18 -7 19 -8 3 -15 -15 -6 -18 -20
-18 -73 0 -69 -16 -77 -22 -12 -3 32 -6 35 -33 33 -16 -1 -31 -7 -33 -13 -2
-5 -11 -3 -20 7 -11 11 -18 38 -20 85 -3 49 -8 68 -18 68 -7 0 -11 -6 -8 -14
3 -7 -2 -16 -12 -20 -13 -5 -15 -14 -10 -42 4 -19 9 -41 12 -48 3 -7 -7 -18
-21 -24 -34 -16 -35 -15 -35 8 0 11 -7 20 -15 20 -8 0 -15 -4 -15 -10 0 -11
-52 -40 -72 -40 -8 0 -14 8 -14 18 -1 9 -5 51 -9 94 -7 70 -6 76 11 81 41 10
88 6 105 -9z m-1664 0 c-3 -3 -12 -4 -19 -1 -8 3 -5 6 6 6 11 1 17 -2 13 -5z
m2688 -24 c3 -5 -1 -10 -9 -10 -9 0 -16 -4 -16 -10 0 -5 9 -10 19 -10 16 0 19
-6 16 -27 -1 -16 -8 -27 -14 -26 -6 2 -8 -4 -4 -14 4 -11 3 -14 -5 -9 -7 4
-12 20 -12 36 0 16 -7 30 -15 34 -18 7 -16 28 5 38 22 10 28 9 35 -2z m145 -4
c0 -3 -4 -8 -10 -11 -5 -3 -10 -1 -10 4 0 6 5 11 10 11 6 0 10 -2 10 -4z m50
-6 c0 -5 -9 -10 -20 -10 -11 0 -20 5 -20 10 0 6 9 10 20 10 11 0 20 -4 20 -10z
m295 0 c4 -6 21 -8 41 -4 35 7 159 -5 137 -13 -8 -3 -13 -22 -13 -47 0 -50 -8
-62 -26 -38 -11 14 -15 15 -23 3 -14 -22 -40 9 -43 53 -2 31 -6 36 -23 34 -15
-2 -19 -9 -17 -27 2 -13 1 -40 -3 -60 l-7 -36 -13 30 c-7 17 -14 25 -14 20 -1
-6 -10 -11 -21 -12 -17 -2 -20 4 -20 41 0 52 27 85 45 56z m269 -6 c12 -5 16
-21 16 -64 0 -33 -3 -61 -7 -63 -8 -5 -38 22 -38 33 0 2 -7 5 -15 5 -10 0 -17
14 -21 43 -3 23 -3 44 -1 47 7 7 47 6 66 -1z m131 -3 c22 -5 32 -9 23 -10 -13
-1 -18 -12 -20 -53 -2 -30 -8 -53 -15 -56 -8 -2 -13 5 -13 18 0 17 -5 21 -19
17 -23 -6 -31 10 -31 59 0 38 5 39 75 25z m273 -1 c203 -1 210 -3 205 -38 -11
-72 -13 -76 -27 -57 -8 12 -21 16 -35 12 -19 -5 -21 -1 -21 34 0 43 -23 55
-35 19 -3 -11 -13 -20 -20 -20 -8 0 -17 -11 -21 -24 -3 -14 -12 -27 -20 -30
-10 -4 -14 3 -14 28 0 44 -9 66 -26 66 -10 0 -14 -12 -14 -39 0 -46 -14 -60
-32 -32 -11 19 -14 19 -30 4 -17 -15 -18 -14 -18 25 0 35 -3 42 -20 42 -16 0
-20 -7 -20 -33 0 -42 -9 -52 -26 -29 -11 15 -13 14 -25 -11 -19 -42 -29 -32
-29 27 0 55 12 70 48 60 7 -2 88 -4 180 -4z m297 -6 c17 -4 20 -12 17 -47 -2
-23 -9 -46 -14 -52 -8 -7 -9 -6 -4 2 11 19 -16 27 -30 9 -11 -16 -14 -13 -24
25 -6 24 -13 50 -15 57 -5 13 33 16 70 6z m110 0 c17 -4 20 -12 17 -53 l-4
-47 -33 10 c-29 9 -34 15 -37 48 -4 45 10 55 57 42z m121 -4 c16 0 4 -53 -15
-67 -13 -9 -20 -7 -36 10 -33 36 -22 73 20 62 11 -2 25 -5 31 -5z m105 0 c5 0
9 -18 9 -40 0 -38 -1 -39 -26 -30 -14 6 -30 8 -35 4 -5 -3 -9 10 -9 30 0 34
13 48 38 40 8 -2 18 -4 23 -4z m1340 -57 c-3 -48 -21 -88 -21 -46 0 12 -7 29
-16 37 -8 9 -11 16 -5 16 6 0 11 5 11 10 0 6 -9 10 -20 10 -16 0 -20 -7 -20
-34 0 -49 -9 -66 -35 -66 -24 0 -35 29 -35 96 l0 33 58 3 c80 4 87 -1 83 -59z
m179 53 c6 -9 8 -34 4 -70 -6 -46 -9 -54 -20 -45 -8 6 -14 29 -14 50 0 35 -3
39 -25 39 -21 0 -25 -5 -25 -30 0 -30 -13 -40 -25 -20 -4 6 -11 8 -16 5 -8 -6
-11 5 -13 52 -2 29 112 44 134 19z m197 -2 c8 -21 -10 -99 -22 -97 -5 1 -12
17 -15 35 -4 25 -11 34 -27 36 -19 3 -23 -1 -24 -25 -1 -45 -7 -65 -21 -74
-31 -20 -38 -10 -38 60 0 46 4 71 13 74 6 3 38 6 70 6 43 1 59 -3 64 -15z
m171 10 c18 -5 22 -13 22 -45 0 -32 -3 -38 -20 -36 -14 1 -20 8 -20 24 0 19
-5 23 -30 23 -24 0 -30 -4 -30 -22 0 -13 -4 -18 -8 -12 -4 6 -15 13 -24 17
-21 7 -24 43 -5 50 17 8 88 8 115 1z m227 -5 c12 -18 -4 -56 -25 -62 -15 -4
-20 0 -20 14 0 14 -7 19 -30 19 -23 0 -30 -4 -30 -20 0 -16 -26 -40 -44 -40
-12 0 -6 88 7 93 23 10 136 7 142 -4z m183 -11 c-3 -20 -8 -23 -40 -20 -32 3
-38 1 -38 -16 0 -27 -39 -17 -50 12 -14 38 -2 46 67 46 61 0 64 -1 61 -22z
m-3911 6 c-3 -3 -12 -4 -19 -1 -8 3 -5 6 6 6 11 1 17 -2 13 -5z m1746 -1 c-7
-2 -13 -18 -13 -33 0 -36 -10 -43 -44 -27 -19 9 -26 20 -26 40 0 26 2 27 48
26 26 0 41 -3 35 -6z m92 -4 c11 -17 -4 -59 -21 -59 -20 0 -44 24 -49 50 -3
17 1 20 30 20 19 0 37 -5 40 -11z m113 -24 c-2 -28 -7 -36 -30 -44 -23 -8 -30
-7 -38 9 -5 10 -9 30 -8 44 2 23 7 26 40 26 38 0 39 -1 36 -35z m112 26 c0 -5
-3 -22 -6 -38 -5 -26 -9 -28 -40 -25 -31 4 -34 7 -34 38 0 33 1 34 40 34 22 0
40 -4 40 -9z m100 -11 c0 -11 -8 -28 -19 -39 -25 -25 -51 -10 -51 29 0 28 3
30 35 30 28 0 35 -4 35 -20z m275 3 c-4 -10 -9 -27 -12 -38 -11 -46 -13 -48
-27 -36 -19 16 -66 3 -67 -18 -2 -28 -17 32 -18 72 l-1 37 66 0 c59 0 65 -2
59 -17z m171 -5 c-3 -13 -6 -39 -6 -58 0 -26 -3 -31 -10 -20 -5 8 -10 27 -10
43 0 19 -5 27 -17 27 -14 0 -18 -10 -20 -46 -3 -54 -1 -51 -33 -56 -23 -3 -25
1 -33 50 -13 77 -9 82 69 82 64 0 66 -1 60 -22z m164 -39 c0 -37 -4 -58 -10
-54 -5 3 -10 24 -10 46 0 32 -4 39 -19 39 -13 0 -21 -9 -26 -29 -5 -25 -11
-29 -36 -29 -27 1 -29 3 -29 45 l0 43 65 0 65 0 0 -61z m-2663 -7 c21 -14 33
-62 33 -139 0 -60 -3 -74 -14 -70 -9 4 -16 -4 -20 -25 -3 -16 -4 -33 -1 -37 2
-4 -9 -8 -24 -8 -42 0 -61 46 -61 148 0 93 18 139 53 139 12 0 27 -4 34 -8z
m-107 -62 c0 -16 -3 -30 -7 -30 -5 0 -8 14 -8 30 0 17 3 30 8 30 4 0 7 -13 7
-30z m-2745 0 c3 -5 -1 -10 -9 -10 -9 0 -16 5 -16 10 0 6 4 10 9 10 6 0 13 -4
16 -10z m3777 -60 c40 0 40 0 34 -31 -3 -17 -6 -39 -6 -49 0 -12 -7 -17 -22
-16 -24 1 -41 -10 -51 -34 -3 -8 -5 32 -5 90 1 58 3 90 5 73 4 -31 7 -33 45
-33z m774 20 c33 0 34 -1 34 -40 0 -33 -3 -40 -19 -40 -11 0 -22 6 -24 13 -8
18 -27 -12 -27 -42 0 -43 -11 -15 -15 40 -4 56 6 121 13 87 2 -13 13 -18 38
-18z m184 15 c0 -10 11 -15 35 -15 33 0 35 -2 35 -32 0 -50 -23 -76 -40 -48
-11 17 -30 3 -30 -21 0 -10 -3 -19 -7 -19 -5 0 -9 34 -9 75 -1 41 2 75 7 75 5
0 9 -7 9 -15z m-514 -25 c33 0 34 -1 34 -43 0 -36 -3 -43 -20 -44 -11 -1 -20
2 -20 8 0 19 -17 8 -26 -18 -9 -23 -11 -14 -11 52 -1 44 1 72 4 63 3 -13 15
-18 39 -18z m744 -35 c0 -36 -3 -65 -7 -65 -9 0 -15 109 -7 122 11 18 14 6 14
-57z m407 -9 c3 -40 1 -66 -6 -70 -8 -5 -11 17 -11 70 0 91 11 92 17 0z
m-3177 19 l0 -45 53 0 c87 0 97 6 93 51 -2 21 0 39 5 39 5 0 10 -11 10 -25 1
-14 3 -29 4 -35 1 -5 3 -13 4 -18 0 -4 19 -6 41 -4 55 6 70 -9 59 -56 -5 -20
-9 -55 -9 -76 0 -36 -1 -38 -13 -22 -12 16 -16 17 -36 5 -18 -12 -23 -12 -31
1 -7 11 -10 1 -11 -35 l-1 -50 -10 43 c-5 23 -12 42 -16 42 -13 0 -42 -40 -42
-56 0 -14 -3 -14 -16 -3 -10 8 -13 21 -9 36 3 13 1 23 -4 23 -6 0 -8 7 -4 16
4 12 2 15 -8 12 -8 -2 -15 -19 -17 -37 -2 -23 -7 -31 -18 -27 -10 4 -14 -3
-14 -24 0 -17 -4 -30 -9 -30 -9 0 -29 254 -22 275 2 6 3 18 3 28 0 9 3 17 9
17 5 0 9 -20 9 -45z m2730 13 c0 -33 -24 -68 -47 -68 -7 0 -13 5 -13 11 0 5
-4 7 -10 4 -5 -3 -10 -15 -10 -26 0 -10 -4 -19 -10 -19 -6 0 -10 28 -10 65 l0
65 50 0 c49 0 50 0 50 -32z m241 22 c14 -8 19 -7 19 2 0 9 3 9 10 -2 13 -20
13 -120 0 -120 -5 0 -10 23 -10 51 0 31 -4 48 -10 44 -5 -3 -10 -17 -10 -31 0
-14 -7 -27 -15 -30 -8 -4 -15 -17 -15 -30 0 -20 -5 -24 -30 -24 -37 0 -46 18
-49 93 l-2 57 46 0 c25 0 55 -5 66 -10z m175 -3 c3 -3 4 -27 2 -53 -4 -48 -4
-48 -12 -16 -11 40 -35 42 -42 2 -6 -30 -26 -38 -50 -22 -11 7 -27 85 -19 93
6 6 115 3 121 -4z m-3324 -43 l3 -39 65 -5 c51 -4 64 -8 62 -20 -2 -8 -6 -47
-9 -87 -5 -67 -7 -71 -25 -62 -10 5 -22 8 -26 5 -4 -2 -14 9 -21 25 -7 16 -20
29 -28 29 -14 0 -15 -11 -10 -70 3 -41 2 -70 -4 -70 -5 0 -9 19 -10 43 0 23
-3 51 -5 62 -2 11 -4 54 -4 94 0 49 -5 78 -13 83 -9 6 -9 8 1 8 6 0 12 12 12
27 0 39 9 23 12 -23z m2130 -9 c-4 -46 -18 -67 -31 -46 -13 21 -39 6 -44 -26
-2 -15 -5 6 -6 48 l-1 75 43 -6 42 -5 -3 -40z m218 45 c3 -5 4 -29 2 -54 -3
-32 -9 -46 -18 -46 -8 0 -17 6 -20 14 -9 22 -32 8 -37 -22 -2 -15 -5 5 -5 43
l-2 70 37 2 c21 1 40 -2 43 -7z m110 -15 c0 -14 -9 -34 -20 -45 -18 -18 -20
-18 -20 -3 0 27 -21 0 -30 -39 -7 -26 -8 -18 -8 40 l1 72 39 0 c34 0 38 -3 38
-25z m220 -6 c0 -47 -16 -70 -45 -63 -19 5 -24 1 -28 -18 -2 -12 -5 7 -6 45
l-1 67 40 0 c38 0 40 -2 40 -31z m820 -28 c0 -33 -4 -63 -10 -66 -6 -4 -10 12
-10 39 0 42 -2 46 -25 46 -21 0 -25 -5 -25 -30 0 -17 -5 -30 -12 -30 -10 0 -9
-3 1 -9 18 -11 5 -31 -20 -31 -10 0 -19 1 -19 3 -7 35 -10 112 -6 123 4 10 22
14 66 14 l60 0 0 -59z m179 22 c0 -21 -4 -47 -9 -58 -8 -19 -9 -19 -9 2 -1 35
-12 53 -31 53 -13 0 -20 -11 -25 -40 -5 -28 -12 -40 -23 -40 -15 0 -15 -2 -2
-11 12 -8 12 -10 -5 -7 -17 3 -20 12 -23 71 l-3 67 66 0 65 0 -1 -37z m181 -7
c0 -53 -16 -69 -25 -26 -5 23 -12 30 -31 30 -19 0 -24 -5 -24 -24 0 -22 -16
-36 -41 -36 -5 0 -9 23 -9 50 l0 50 65 0 65 0 0 -44z m158 35 c30 -1 32 -3 32
-38 0 -21 -5 -45 -10 -53 -7 -12 -11 -8 -16 18 -6 28 -10 33 -33 30 -20 -2
-27 -9 -29 -30 -3 -22 -9 -28 -28 -28 -22 0 -24 3 -24 55 l0 54 38 -3 c20 -2
52 -4 70 -5z m-2110 -34 c5 -38 -6 -67 -17 -48 -17 27 -46 8 -52 -34 -6 -39
-6 -39 -9 15 -2 30 -4 62 -5 70 -2 23 1 25 42 25 34 0 38 -3 41 -28z m122 -2
c0 -25 -5 -38 -17 -42 -10 -4 -24 -15 -31 -25 -7 -10 -17 -16 -22 -13 -5 3
-10 -3 -12 -12 -2 -10 -4 15 -6 55 l-2 72 45 0 c45 0 45 0 45 -35z m2220 -4
c0 -24 -6 -44 -17 -52 -15 -12 -16 -12 -10 4 3 9 2 17 -3 17 -6 0 -10 7 -10
15 0 10 -10 15 -30 15 -23 0 -30 -5 -30 -19 0 -16 -27 -37 -36 -28 -2 1 -6 22
-10 45 l-7 42 77 0 76 0 0 -39z m200 3 c0 -21 -4 -33 -10 -29 -5 3 -10 1 -10
-4 0 -18 -18 -12 -22 6 -2 9 -13 17 -27 18 -17 1 -26 -5 -33 -28 -8 -21 -13
-25 -19 -15 -7 10 -9 10 -9 -2 -1 -34 -20 16 -20 53 l0 37 75 0 75 0 0 -36z
m-3721 -11 c-1 -37 -1 -37 -8 -8 -7 28 -5 45 5 45 2 0 3 -17 3 -37z m253 -38
c2 -55 0 -75 -9 -75 -9 0 -13 22 -13 75 0 98 17 97 22 0z m582 66 c3 -5 3 -29
0 -54 -5 -35 -11 -47 -28 -51 -11 -3 -22 -1 -24 4 -8 22 -21 8 -25 -27 -2 -21
-4 -1 -5 44 -2 77 -1 82 21 86 40 8 56 7 61 -2z m116 -30 c0 -22 -3 -46 -6
-55 -7 -17 -34 -22 -34 -6 0 5 -7 7 -15 4 -8 -4 -16 -20 -16 -38 -1 -23 -4
-18 -9 19 -5 28 -9 65 -9 83 -1 31 0 32 44 32 l45 0 0 -39z m2950 31 c0 -5
-13 -7 -30 -4 -16 2 -30 6 -30 8 0 2 14 4 30 4 17 0 30 -4 30 -8z m-5237 -9
c-7 -2 -19 -2 -25 0 -7 3 -2 5 12 5 14 0 19 -2 13 -5z m227 -44 l0 -40 54 6
c30 4 64 4 76 0 21 -7 22 -11 17 -64 -4 -31 -8 -65 -11 -76 -2 -11 -5 -36 -7
-55 -1 -25 -3 -28 -6 -12 -4 20 -8 21 -44 16 -25 -4 -44 -2 -54 6 -13 11 -15
6 -15 -39 0 -28 -4 -51 -10 -51 -10 0 -21 35 -18 60 0 8 0 47 0 86 -2 62 -5
72 -21 77 -18 4 -20 -3 -27 -94 -3 -54 -11 -96 -15 -93 -5 3 -7 10 -4 15 4 5
1 9 -4 9 -6 0 -11 -4 -11 -10 0 -18 -32 -10 -37 9 -4 14 -13 19 -31 18 -25 -2
-27 -6 -30 -60 -2 -40 -7 -57 -17 -57 -10 0 -14 24 -17 95 -2 71 -7 98 -18
105 -10 7 -11 10 -2 10 6 0 12 5 12 10 0 6 -8 10 -18 10 -20 0 -42 -49 -42
-92 0 -21 -6 -27 -31 -32 -17 -3 -40 -17 -51 -31 -25 -32 -32 -31 -45 3 -9 23
-11 17 -12 -46 -1 -42 -5 -71 -10 -67 -16 9 -35 281 -20 290 4 3 6 21 5 40 -2
19 1 35 5 35 5 0 9 -12 9 -26 l0 -27 74 7 c61 5 77 4 90 -9 9 -9 24 -15 34
-13 13 3 16 12 14 41 -1 21 2 37 8 37 21 0 9 20 -12 21 -22 0 -22 1 -3 9 33
14 35 12 35 -30 l0 -40 70 0 c39 0 73 0 76 1 3 0 12 -8 19 -18 16 -22 31 -11
20 14 -12 29 -13 53 -1 53 6 0 4 5 -4 10 -10 6 -11 10 -2 10 6 0 11 3 11 8 -3
16 2 23 11 17 6 -3 10 -24 10 -46z m1700 -14 c0 -36 -3 -65 -6 -65 -3 0 -15
11 -26 25 -28 36 -43 27 -39 -23 1 -25 -2 -42 -8 -42 -12 0 -15 109 -5 148 5
18 13 22 45 22 l39 0 0 -65z m124 -2 c-7 -69 -13 -88 -21 -65 -3 6 -16 12 -29
12 -19 0 -24 -5 -24 -26 0 -14 -4 -23 -10 -19 -6 4 -8 10 -5 14 2 5 5 41 6 80
l2 71 44 0 44 0 -7 -67z m3046 2 c0 -37 -4 -65 -10 -65 -11 0 -14 88 -4 114
11 28 14 17 14 -49z m-3558 -49 c2 -65 0 -90 -9 -93 -10 -4 -13 20 -13 98 0
126 17 122 22 -5z m138 45 c0 -73 -6 -90 -29 -84 -25 6 -41 45 -41 98 0 45 0
45 35 45 l35 0 0 -59z m130 25 c0 -19 -3 -42 -6 -51 -6 -14 -8 -14 -26 2 -19
17 -20 17 -31 -2 -7 -11 -15 -38 -18 -60 -4 -26 -6 -8 -7 53 l-1 92 45 0 c43
0 44 0 44 -34z m2497 -3 c-3 -10 -5 -4 -5 12 0 17 2 24 5 18 2 -7 2 -21 0 -30z
m-167 -13 c0 -22 -4 -40 -10 -40 -5 0 -10 18 -10 40 0 22 5 40 10 40 6 0 10
-18 10 -40z m357 -27 c-2 -16 -4 -5 -4 22 0 28 2 40 4 28 2 -13 2 -35 0 -50z
m-3274 27 c6 -27 -9 -53 -24 -44 -5 3 -9 -10 -9 -29 0 -27 -4 -33 -19 -32 -11
1 -26 7 -35 14 -18 15 -19 13 -16 -56 1 -30 -3 -43 -12 -43 -9 0 -14 23 -16
86 -1 47 0 94 3 104 7 21 31 28 87 26 31 -1 37 -5 41 -26z m3464 -32 c-2 -13
-4 -5 -4 17 -1 22 1 32 4 23 2 -10 2 -28 0 -40z m-4130 6 c13 -12 13 -18 4
-24 -10 -5 -9 -9 4 -14 9 -3 13 -10 10 -16 -4 -6 -11 -8 -16 -5 -5 4 -9 -25
-10 -67 -1 -72 -1 -73 -14 -38 -7 19 -14 29 -14 21 -1 -11 -4 -11 -16 -1 -18
15 -45 6 -45 -15 0 -9 -4 -13 -10 -10 -6 4 -10 -10 -10 -34 0 -23 -4 -41 -10
-41 -6 0 -10 34 -10 81 0 44 -5 89 -10 100 -9 16 -7 19 12 20 17 1 18 3 6 6
-22 6 -22 8 -1 33 22 26 106 28 130 4z m3763 1 c0 -8 -4 -15 -10 -15 -5 0 -10
7 -10 15 0 8 5 15 10 15 6 0 10 -7 10 -15z m-4604 -96 c-4 -29 -9 -56 -13 -62
-3 -5 -9 -35 -12 -66 -5 -42 -10 -57 -23 -59 -11 -2 -18 3 -18 12 0 20 -18 30
-33 17 -7 -5 -23 -8 -35 -4 -18 4 -22 1 -22 -18 l-1 -24 -14 25 c-13 23 -14
20 -15 -47 0 -42 -4 -73 -10 -73 -5 0 -10 3 -10 8 0 4 -3 60 -6 124 -4 70 -2
129 4 146 7 21 7 33 0 40 -7 7 0 12 23 16 56 9 92 13 143 15 l48 1 -6 -51z
m1621 19 c-3 -8 -6 -5 -6 6 -1 11 2 17 5 13 3 -3 4 -12 1 -19z m-1912 -34 c-2
-118 -7 -217 -12 -206 -4 10 -8 10 -21 0 -13 -11 -15 -10 -9 4 4 11 0 21 -11
26 -23 13 -42 4 -42 -19 0 -25 -44 -26 -68 -2 -16 16 -17 11 -20 -65 -2 -45
-7 -82 -12 -82 -14 0 -32 39 -24 51 3 6 7 72 8 147 1 104 4 136 14 135 6 -2
12 6 12 16 0 16 10 20 65 26 46 5 69 4 80 -5 12 -10 15 -9 15 5 0 9 6 15 13
13 7 -3 12 -21 12 -44z m2168 15 c-4 -16 -8 -17 -14 -7 -13 19 -11 28 5 28 9
0 12 -7 9 -21z m-2475 -107 c-3 -95 -5 -110 -25 -130 -13 -12 -23 -26 -23 -31
0 -5 -9 -11 -20 -14 -21 -5 -70 33 -70 53 0 6 -7 10 -15 10 -8 0 -15 -7 -15
-15 0 -8 -11 -17 -25 -21 -24 -6 -24 -9 -22 -83 2 -62 -1 -76 -13 -76 -12 0
-15 22 -17 130 -1 140 3 177 18 154 5 -9 9 9 9 48 l0 62 33 6 c31 5 86 10 155
13 l34 2 -4 -108z m2169 76 c-3 -7 -5 -2 -5 12 0 14 2 19 5 13 2 -7 2 -19 0
-25z m63 6 c0 -8 -4 -12 -10 -9 -5 3 -10 10 -10 16 0 5 5 9 10 9 6 0 10 -7 10
-16z m-2578 -28 c5 -25 -7 -214 -13 -220 -2 -2 -14 -7 -27 -11 -19 -5 -25 -2
-29 14 -7 25 -53 30 -53 5 0 -22 -32 -53 -38 -36 -2 6 -10 12 -17 12 -8 0 -11
7 -8 20 4 16 0 20 -22 20 -22 0 -26 -4 -22 -20 3 -11 1 -20 -4 -20 -5 0 -9 15
-9 33 -1 17 -3 71 -6 119 l-5 86 68 7 c37 3 75 8 83 9 8 2 34 4 56 5 36 1 42
-2 46 -23z m-408 -92 c-3 -229 -4 -245 -14 -239 -6 4 -8 11 -5 16 4 5 1 9 -4
9 -6 0 -11 -7 -11 -16 0 -9 -9 -18 -20 -21 -11 -3 -17 -10 -13 -16 4 -6 1 -7
-6 -2 -7 4 -11 16 -8 26 7 24 -22 41 -46 28 -9 -6 -17 -19 -17 -29 0 -11 -5
-20 -11 -20 -8 0 -10 12 -6 34 7 42 -9 52 -38 25 -11 -10 -36 -20 -55 -21
l-35 -3 -3 142 -3 141 68 7 c38 3 100 10 138 14 39 5 75 7 80 6 6 -1 10 -35 9
-81z m526 71 c0 -8 -4 -15 -10 -15 -5 0 -10 7 -10 15 0 8 5 15 10 15 6 0 10
-7 10 -15z m4414 0 c3 -8 1 -15 -4 -15 -6 0 -10 7 -10 15 0 8 2 15 4 15 2 0 6
-7 10 -15z m496 11 c0 -11 -19 -15 -25 -6 -3 5 1 10 9 10 9 0 16 -2 16 -4z
m-830 -36 c0 -5 -4 -10 -10 -10 -5 0 -10 5 -10 10 0 6 5 10 10 10 6 0 10 -4
10 -10z m-4473 -16 c-3 -3 -12 -4 -19 -1 -8 3 -5 6 6 6 11 1 17 -2 13 -5z
m3567 -2 c2 -4 -4 -9 -15 -9 -11 -1 -17 2 -14 8 7 11 22 12 29 1z m1553 -11
c16 6 22 5 18 -1 -3 -6 -1 -10 4 -10 19 0 12 -22 -8 -27 -10 -3 -23 -14 -28
-26 -9 -20 -11 -18 -17 16 -6 34 -10 38 -34 35 -21 -2 -27 -8 -26 -25 1 -24
-10 -30 -21 -13 -3 5 -16 8 -28 6 -12 -3 -28 -5 -36 -5 -7 -1 -11 -7 -7 -16 3
-8 2 -15 -3 -15 -5 0 -11 10 -14 22 -5 18 -8 19 -21 8 -14 -11 -16 -9 -16 9 0
17 -6 21 -34 21 -28 0 -35 -4 -38 -22 -3 -20 -8 -23 -41 -20 -26 3 -39 -1 -43
-12 -3 -8 -12 -12 -20 -9 -8 3 -14 -1 -14 -8 0 -11 -3 -11 -10 1 -5 8 -10 27
-10 41 0 26 1 26 98 33 53 4 142 9 196 11 55 3 102 7 104 10 3 3 10 1 15 -4 6
-6 19 -6 34 0z m233 -1 c0 -5 -9 -10 -20 -10 -11 0 -20 5 -20 10 0 6 9 10 20
10 11 0 20 -4 20 -10z m-185 -36 c-5 -31 -4 -36 9 -31 10 4 16 1 16 -8 0 -19
-14 -19 -30 0 -7 9 -9 26 -5 45 9 43 19 37 10 -6z m105 6 c0 -11 -7 -20 -15
-20 -8 0 -19 9 -25 20 -9 18 -8 20 15 20 18 0 25 -5 25 -20z m211 10 c39 11
28 -5 -13 -19 -17 -6 -29 -8 -25 -5 4 4 1 14 -5 23 -10 13 -10 14 1 4 9 -7 23
-8 42 -3z m-5467 -181 c4 -83 5 -153 2 -157 -19 -18 -29 28 -32 146 -2 71 -4
133 -5 138 -1 5 -1 20 0 34 2 23 3 24 15 7 9 -11 16 -68 20 -168z m4646 171
c0 -5 -13 -10 -30 -10 -27 0 -30 -3 -30 -32 0 -30 -1 -31 -19 -14 -18 17 -20
17 -40 -3 -26 -26 -32 -27 -24 -3 6 15 5 15 -10 3 -10 -8 -20 -11 -24 -8 -3 4
-12 2 -20 -4 -10 -9 -13 -7 -13 10 0 13 -9 26 -22 31 -23 10 -23 10 2 8 14 -1
30 0 35 4 6 3 44 9 85 13 41 4 77 9 79 11 8 8 31 4 31 -6z m660 -4 c0 -3 -4
-8 -10 -11 -5 -3 -10 -1 -10 4 0 6 5 11 10 11 6 0 10 -2 10 -4z m-1710 -26 c0
-5 -5 -10 -11 -10 -5 0 -7 5 -4 10 3 6 8 10 11 10 2 0 4 -4 4 -10z m790 -9 c0
-16 -6 -19 -35 -15 -19 2 -35 1 -35 -3 0 -5 -19 -8 -43 -8 -43 0 -52 12 -22
30 10 7 18 7 23 0 10 -14 42 -18 42 -5 0 6 4 9 9 5 5 -3 12 -1 16 5 11 18 45
11 45 -9z m619 -7 c15 9 14 -1 -1 -20 -33 -40 -50 -55 -56 -49 -4 3 0 10 7 15
12 7 16 17 20 65 1 6 5 4 10 -4 5 -7 14 -10 20 -7z m54 2 c5 -12 -2 -14 -31
-7 -2 1 0 6 3 11 9 14 22 12 28 -4z m208 -9 c-13 -13 -26 -3 -16 12 3 6 11 8
17 5 6 -4 6 -10 -1 -17z m86 -17 c-1 -31 -5 -40 -19 -40 -10 0 -18 5 -18 10 0
6 5 10 10 10 6 0 10 10 10 23 0 17 -2 19 -10 7 -5 -8 -13 -11 -17 -6 -8 7 23
36 38 36 5 0 7 -18 6 -40z m-2917 20 c8 13 10 12 10 -2 0 -11 -8 -18 -20 -18
-12 0 -20 7 -20 18 0 14 2 15 10 2 9 -13 11 -13 20 0z m80 -16 c0 -8 -9 -14
-22 -13 -19 1 -19 2 -5 6 18 5 18 5 0 18 -17 13 -16 14 5 8 12 -3 22 -12 22
-19z m409 -1 c0 -25 -1 -26 -9 -8 -12 27 -12 35 0 35 6 0 10 -12 9 -27z m1246
6 c0 -8 -12 -15 -27 -17 -16 -2 -28 -7 -28 -11 0 -4 -18 -6 -41 -5 -29 1 -45
-3 -58 -18 -18 -19 -18 -19 -14 7 4 16 1 25 -8 25 -7 0 -9 3 -6 7 11 10 77 15
77 5 0 -5 7 -9 15 -9 8 0 15 4 15 10 0 5 6 7 12 5 7 -3 19 2 27 9 16 16 36 12
36 -8z m619 -6 c-12 -13 -13 -18 -3 -24 8 -4 11 -11 8 -14 -8 -7 -59 16 -59
27 0 13 20 9 20 -4 1 -7 8 0 16 15 8 15 19 25 25 22 5 -4 2 -13 -7 -22z m502
0 c-10 -10 -19 5 -10 18 6 11 8 11 12 0 2 -7 1 -15 -2 -18z m-3201 0 c-2 -10
-4 -29 -5 -43 -1 -23 -2 -23 -9 -5 -8 19 -8 19 -20 -3 -6 -12 -18 -22 -26 -22
-22 0 -18 -23 5 -38 40 -25 11 -50 -31 -25 -13 8 -17 12 -8 10 12 -4 15 0 11
19 -4 24 -42 36 -42 13 0 -5 -4 -8 -9 -5 -5 3 -12 -4 -16 -17 -6 -19 -8 -19
-12 -4 -2 9 -9 17 -14 17 -6 0 -8 10 -4 23 4 15 4 18 -3 8 -5 -7 -8 -29 -7
-47 2 -19 -1 -34 -7 -34 -6 0 -8 22 -6 55 1 31 -1 57 -7 59 -5 3 -2 5 8 5 9 1
17 -4 17 -10 0 -5 5 -7 10 -4 6 3 10 14 10 24 0 15 8 18 55 17 30 0 55 -4 55
-8 0 -4 -7 -8 -15 -8 -8 0 -15 -4 -15 -10 0 -20 27 -10 40 15 7 13 17 22 22
19 4 -3 8 0 8 5 0 6 4 11 9 11 5 0 8 -8 6 -17z m44 -10 c-5 -15 -9 -39 -8 -53
2 -47 -1 -60 -16 -60 -8 0 -15 5 -15 11 0 5 5 7 10 4 13 -8 13 36 0 69 -7 21
-6 26 5 26 8 0 15 7 15 15 0 8 4 15 10 15 6 0 6 -10 -1 -27z m159 -3 c10 0 13
-3 6 -8 -6 -4 -13 -15 -17 -24 -5 -15 -10 -16 -32 -6 -14 6 -25 20 -25 30 0
11 4 17 9 14 5 -3 15 2 22 11 13 15 14 15 17 0 2 -10 11 -17 20 -17z m64 13
c-6 -9 -17 -18 -27 -19 -15 -2 -15 -1 2 16 23 24 37 25 25 3z m1035 11 c-3 -3
-12 -4 -19 -1 -8 3 -5 6 6 6 11 1 17 -2 13 -5z m2015 -37 c-2 -22 -9 -36 -16
-34 -6 2 -11 8 -11 13 0 5 -4 14 -8 21 -4 7 1 14 13 18 11 3 20 11 20 17 0 6
2 9 4 7 2 -2 1 -21 -2 -42z m-2102 26 c0 -5 -5 -15 -10 -23 -8 -12 -10 -11
-10 8 0 12 5 22 10 22 6 0 10 -3 10 -7z m640 -12 c0 -21 -13 -41 -26 -41 -17
0 -18 22 -2 38 14 14 28 16 28 3z m1113 -7 c-2 -5 -7 -9 -13 -8 -5 1 -17 2
-26 3 -8 0 -12 5 -9 11 7 12 51 7 48 -6z m115 3 c7 -8 7 -18 2 -27 -8 -12 -10
-11 -10 7 0 12 -6 24 -12 26 -8 4 -9 6 -2 6 6 1 16 -5 22 -12z m-1308 -19 c0
-6 7 -5 15 2 13 10 15 9 15 -9 0 -21 -11 -25 -58 -21 -13 1 -30 -4 -38 -10
-11 -10 -14 -9 -14 9 0 16 -6 21 -25 21 -20 0 -27 -6 -31 -30 -6 -26 -10 -29
-31 -24 -35 9 -60 -27 -27 -40 8 -3 13 -2 10 3 -4 5 3 7 14 4 11 -3 20 -12 20
-20 0 -10 -7 -14 -20 -10 -11 3 -20 1 -20 -4 0 -5 -7 -9 -15 -9 -8 0 -12 6 -9
14 3 8 1 17 -5 20 -6 4 -7 14 -4 23 4 11 2 14 -8 11 -8 -3 -23 2 -33 11 -18
15 -19 15 -13 -4 6 -19 6 -19 -8 1 -11 15 -23 19 -50 16 -34 -4 -35 -5 -36
-51 -1 -25 -3 -38 -6 -28 -3 13 -10 16 -25 11 -17 -5 -18 -3 -10 13 6 10 10
27 9 38 -2 16 9 21 63 32 36 6 85 10 109 8 27 -2 48 1 56 9 7 7 34 13 60 14
26 1 54 6 63 11 18 10 52 3 52 -11z m735 12 c3 -5 1 -10 -4 -10 -6 0 -11 5
-11 10 0 6 2 10 4 10 3 0 8 -4 11 -10z m212 -12 c-3 -8 -6 -5 -6 6 -1 11 2 17
5 13 3 -3 4 -12 1 -19z m310 0 c-3 -8 -6 -5 -6 6 -1 11 2 17 5 13 3 -3 4 -12
1 -19z m-1144 -8 c3 -11 1 -18 -4 -14 -5 3 -9 12 -9 20 0 20 7 17 13 -6z m332
10 c3 -5 1 -10 -4 -10 -6 0 -11 5 -11 10 0 6 2 10 4 10 3 0 8 -4 11 -10z m372
-12 c-3 -8 -6 -5 -6 6 -1 11 2 17 5 13 3 -3 4 -12 1 -19z m-1902 -7 c-3 -6
-11 -11 -16 -11 -5 0 -4 6 3 14 14 16 24 13 13 -3z m2147 7 c-9 -9 -15 -9 -24
0 -9 9 -7 12 12 12 19 0 21 -3 12 -12z m-2766 -38 c3 -21 0 -30 -8 -28 -12 4
-19 46 -11 61 8 13 15 0 19 -33z m21 18 c-3 -8 -6 -5 -6 6 -1 11 2 17 5 13 3
-3 4 -12 1 -19z m2020 7 c0 -18 -19 -15 -25 3 -2 7 3 12 11 12 7 0 14 -7 14
-15z m163 0 c0 -12 -19 -12 -23 0 -4 9 -1 12 9 8 7 -3 14 -7 14 -8z m34 3 c-5
-8 -2 -9 10 -5 10 4 15 3 11 -3 -3 -6 -15 -10 -27 -10 -17 0 -18 2 -8 15 15
18 24 20 14 3z m-2678 -15 c8 -11 13 -13 14 -5 0 6 5 12 11 12 5 0 8 -4 4 -9
-3 -5 -1 -12 5 -16 13 -8 13 -62 1 -70 -5 -3 -12 -1 -16 5 -3 5 -11 10 -16 10
-6 0 -7 -4 -4 -10 3 -5 0 -10 -8 -10 -11 0 -13 7 -9 22 3 14 2 19 -6 14 -7 -4
-12 -16 -12 -27 0 -10 -4 -19 -8 -19 -9 0 -7 94 3 110 9 15 26 12 41 -7z m894
-3 c0 -10 -26 -20 -34 -13 -14 14 -5 31 14 26 11 -3 20 -9 20 -13z m1835 10
c3 -5 1 -10 -4 -10 -6 0 -11 5 -11 10 0 6 2 10 4 10 3 0 8 -4 11 -10z m145 -6
c0 -8 -4 -12 -10 -9 -5 3 -10 10 -10 16 0 5 5 9 10 9 6 0 10 -7 10 -16z m460
-4 c0 -5 -7 -7 -15 -4 -10 4 -15 0 -16 -12 0 -12 -3 -14 -6 -6 -6 15 16 44 28
36 5 -3 9 -9 9 -14z m-2820 -10 c0 -14 -6 -20 -22 -19 -13 0 -17 3 -10 6 6 2
12 11 12 19 0 8 5 14 10 14 6 0 10 -9 10 -20z m320 -1 c0 -6 -4 -7 -10 -4 -5
3 -10 11 -10 16 0 6 5 7 10 4 6 -3 10 -11 10 -16z m2320 5 c0 -8 -4 -12 -10
-9 -5 3 -10 10 -10 16 0 5 5 9 10 9 6 0 10 -7 10 -16z m269 -14 c-10 -7 -10
-11 0 -24 8 -10 9 -16 3 -16 -6 0 -17 14 -26 31 -13 26 -13 30 -1 25 8 -3 18
0 22 6 5 9 8 8 11 -1 2 -7 -1 -17 -9 -21z m-2054 -21 c-3 -24 0 -32 21 -39 26
-10 25 -30 -2 -30 -8 0 -14 -9 -14 -20 0 -11 -4 -20 -10 -20 -21 0 -9 -17 23
-33 l32 -16 -37 5 c-27 4 -38 1 -38 -8 -1 -9 -5 -7 -14 5 -12 15 -15 15 -26 2
-15 -18 -31 -11 -23 10 6 17 -12 20 -22 4 -4 -6 -13 -8 -21 -5 -9 4 -14 -2
-14 -15 0 -11 5 -17 10 -14 6 3 10 -1 10 -10 0 -9 5 -13 10 -10 6 4 10 -5 10
-19 0 -14 5 -26 10 -26 6 0 10 -5 10 -11 0 -8 -4 -9 -13 0 -8 6 -17 8 -20 4
-4 -3 -7 1 -7 11 0 14 -5 12 -24 -8 -22 -25 -43 -36 -32 -17 4 5 0 12 -6 15
-10 3 -8 9 4 19 10 8 15 17 11 21 -4 4 0 4 10 0 10 -3 17 -1 17 5 0 6 -10 11
-21 11 -17 0 -19 3 -10 13 13 16 5 28 -14 21 -8 -3 -12 4 -12 21 0 34 -5 37
-36 26 -17 -7 -28 -7 -32 -1 -8 13 37 30 98 37 40 5 47 9 47 28 0 28 32 57 79
71 46 14 50 11 46 -27z m1845 24 c3 -3 -3 -10 -13 -17 -21 -16 -22 -35 -2 -42
11 -5 12 -10 2 -25 -6 -10 -18 -19 -26 -19 -11 0 -9 4 5 15 16 12 17 16 5 24
-8 5 -16 26 -17 46 -3 33 -1 36 19 29 12 -3 24 -9 27 -11z m241 -20 c-9 -15
-10 -14 -7 7 6 35 7 37 12 23 3 -7 1 -20 -5 -30z m209 -19 c0 -7 -4 -15 -9
-18 -10 -7 -22 17 -27 52 l-3 24 20 -23 c10 -12 19 -28 19 -35z m-2273 14 c-3
-7 -5 -2 -5 12 0 14 2 19 5 13 2 -7 2 -19 0 -25z m333 16 c0 -2 -7 -4 -15 -4
-8 0 -15 4 -15 10 0 5 7 7 15 4 8 -4 15 -8 15 -10z m1257 -16 c-3 -7 -5 -2 -5
12 0 14 2 19 5 13 2 -7 2 -19 0 -25z m-5167 10 c0 -7 5 -53 10 -103 12 -101 6
-145 -18 -145 -15 0 -17 12 -14 98 2 53 3 112 3 130 -1 17 4 32 9 32 6 0 10
-6 10 -12z m3110 -3 c0 -2 -7 -5 -15 -9 -9 -3 -15 0 -15 9 0 9 6 12 15 9 8 -4
15 -7 15 -9z m205 5 c3 -5 1 -10 -4 -10 -6 0 -11 5 -11 10 0 6 2 10 4 10 3 0
8 -4 11 -10z m1145 0 c0 -5 -2 -10 -4 -10 -3 0 -8 5 -11 10 -3 6 -1 10 4 10 6
0 11 -4 11 -10z m104 -5 c3 -8 1 -15 -4 -15 -6 0 -10 7 -10 15 0 8 2 15 4 15
2 0 6 -7 10 -15z m644 -3 c-10 -2 -18 -8 -18 -14 0 -6 -3 -8 -6 -5 -11 10 17
38 30 30 7 -5 5 -9 -6 -11z m-2881 -39 c-3 -10 -5 -2 -5 17 0 19 2 27 5 18 2
-10 2 -26 0 -35z m1543 37 c0 -5 -9 -10 -20 -10 -11 0 -20 5 -20 10 0 6 9 10
20 10 11 0 20 -4 20 -10z m1660 0 c0 -5 -4 -10 -10 -10 -5 0 -10 5 -10 10 0 6
5 10 10 10 6 0 10 -4 10 -10z m216 -8 c1 -7 0 -8 -3 -2 -2 5 -9 8 -14 4 -5 -3
-9 0 -9 6 0 15 23 7 26 -8z m49 8 c3 -5 -1 -10 -9 -10 -9 0 -16 5 -16 10 0 6
4 10 9 10 6 0 13 -4 16 -10z m-3045 -26 c0 -14 -4 -23 -10 -19 -5 3 -10 15
-10 26 0 10 5 19 10 19 6 0 10 -12 10 -26z m282 -6 c-18 -18 -52 -20 -52 -4 0
19 20 32 20 14 0 -8 5 -5 11 5 8 14 14 16 22 8 8 -8 8 -14 -1 -23z m748 17 c0
-16 8 -19 60 -16 26 1 31 -1 20 -8 -10 -7 -15 -26 -14 -58 1 -26 -1 -40 -3
-30 -6 25 -33 74 -33 60 0 -6 -9 -9 -20 -6 -11 3 -20 14 -20 24 0 10 -5 21
-10 24 -12 7 -4 25 11 25 5 0 9 -7 9 -15z m1290 5 c0 -5 -2 -10 -4 -10 -3 0
-8 5 -11 10 -3 6 -1 10 4 10 6 0 11 -4 11 -10z m70 -38 c0 -9 -7 -13 -19 -9
-15 3 -18 1 -14 -12 3 -12 0 -11 -12 4 -10 12 -12 21 -5 23 7 3 7 8 -1 18 -10
12 -9 13 6 8 14 -6 16 -4 10 7 -5 8 1 5 13 -5 12 -11 22 -26 22 -34z m317 26
c-3 -8 -6 -5 -6 6 -1 11 2 17 5 13 3 -3 4 -12 1 -19z m113 12 c0 -5 -4 -10 -9
-10 -6 0 -13 5 -16 10 -3 6 1 10 9 10 9 0 16 -4 16 -10z m-1180 -10 c0 -5 -2
-10 -4 -10 -3 0 -8 5 -11 10 -3 6 -1 10 4 10 6 0 11 -4 11 -10z m860 1 c0 -12
-20 -25 -27 -18 -7 7 6 27 18 27 5 0 9 -4 9 -9z m30 -12 c0 -5 -4 -9 -8 -9 -5
0 -9 7 -9 15 0 8 4 12 9 9 4 -3 8 -9 8 -15z m-2692 -21 c6 -20 7 -64 3 -108
-6 -59 -8 -65 -10 -29 -1 35 -8 56 -31 84 -32 41 -36 50 -20 60 6 3 10 -4 10
-16 0 -18 2 -20 16 -8 8 7 13 21 11 31 -9 32 11 19 21 -14z m2955 19 c15 -6
16 -9 5 -21 -7 -8 -17 -12 -22 -9 -4 3 -2 10 5 15 10 7 8 8 -8 5 -15 -3 -20
-1 -16 9 3 8 8 12 12 10 3 -1 14 -6 24 -9z m40 -2 c-3 -9 -8 -14 -10 -11 -3 3
-2 9 2 15 9 16 15 13 8 -4z m-2396 -1 c-3 -3 -12 -4 -19 -1 -8 3 -5 6 6 6 11
1 17 -2 13 -5z m1873 -2 c0 -4 -9 -13 -19 -19 -15 -10 -20 -9 -25 2 -4 12 7
19 37 24 4 0 7 -2 7 -7z m266 -8 c-4 -9 -1 -23 5 -31 7 -7 9 -16 6 -19 -9 -10
-27 34 -21 50 3 9 8 16 11 16 3 0 2 -7 -1 -16z m-931 -4 c3 -5 1 -10 -4 -10
-6 0 -11 5 -11 10 0 6 2 10 4 10 3 0 8 -4 11 -10z m83 -10 c-7 -11 -16 -20
-20 -20 -5 0 -3 9 4 20 7 11 16 20 20 20 5 0 3 -9 -4 -20z m742 6 c0 -22 -25
-26 -38 -5 -11 17 -9 19 13 19 15 0 25 -6 25 -14z m-956 -4 c6 -10 -24 -36
-46 -40 -8 -1 -19 5 -22 14 -5 13 -2 15 19 10 18 -5 25 -2 25 9 0 16 15 20 24
7z m95 -13 c-15 -9 -32 -2 -24 11 3 5 13 6 21 3 12 -4 13 -8 3 -14z m911 -8
c0 -12 -39 -21 -45 -11 -3 5 -2 15 1 24 5 12 10 13 25 5 10 -5 19 -14 19 -18z
m-2230 10 c0 -6 -4 -13 -10 -16 -5 -3 -10 1 -10 9 0 9 5 16 10 16 6 0 10 -4
10 -9z m647 -3 c12 -20 12 -39 0 -31 -6 4 -8 0 -4 -10 8 -20 -4 -22 -22 -4
-10 10 -12 9 -9 -3 2 -9 -3 -14 -11 -12 -8 2 -18 -3 -22 -10 -7 -10 -9 -9 -9
5 0 9 7 17 15 17 10 0 15 10 15 30 0 23 5 30 19 30 11 0 23 -6 28 -12z m628
-6 c-3 -3 -11 0 -18 7 -9 10 -8 11 6 5 10 -3 15 -9 12 -12z m480 6 c5 4 5 2 1
-5 -8 -14 -36 -6 -36 9 0 7 5 6 13 -1 8 -6 18 -7 22 -3z m45 8 c0 -3 -4 -8
-10 -11 -5 -3 -10 -1 -10 4 0 6 5 11 10 11 6 0 10 -2 10 -4z m56 -18 c-9 -5
-24 -7 -34 -5 -14 3 -12 6 8 14 29 12 50 5 26 -9z m524 12 c0 -5 -4 -10 -10
-10 -5 0 -10 5 -10 10 0 6 5 10 10 10 6 0 10 -4 10 -10z m-1257 -16 c-6 -16
-25 -14 -30 2 -2 5 6 10 16 11 14 1 18 -3 14 -13z m547 6 c0 -5 -2 -10 -4 -10
-3 0 -8 5 -11 10 -3 6 -1 10 4 10 6 0 11 -4 11 -10z m36 -17 c-10 -10 -19 5
-10 18 6 11 8 11 12 0 2 -7 1 -15 -2 -18z m874 11 c0 -8 -4 -12 -10 -9 -5 3
-10 10 -10 16 0 5 5 9 10 9 6 0 10 -7 10 -16z m-2880 -10 c0 -8 -4 -12 -10 -9
-5 3 -10 10 -10 16 0 5 5 9 10 9 6 0 10 -7 10 -16z m1760 2 c0 -3 -4 -8 -10
-11 -5 -3 -10 -1 -10 4 0 6 5 11 10 11 6 0 10 -2 10 -4z m980 -17 c0 -5 -7 -9
-15 -9 -9 0 -12 6 -9 15 6 15 24 11 24 -6z m-3064 -16 c-10 -10 -19 5 -10 18
6 11 8 11 12 0 2 -7 1 -15 -2 -18z m849 -5 c-3 -18 -7 -51 -9 -73 -3 -22 -5
-41 -6 -42 0 -2 -5 -3 -11 -3 -6 0 -9 7 -6 14 4 10 1 13 -9 9 -7 -3 -14 -10
-14 -15 0 -6 -6 -8 -13 -5 -8 3 -14 0 -14 -6 0 -7 -3 -22 -7 -34 -9 -27 -1
-29 21 -7 13 13 17 13 24 2 10 -15 12 -34 3 -25 -4 3 -14 -1 -23 -10 -11 -12
-13 -17 -3 -21 17 -5 15 -42 -2 -42 -8 0 -22 10 -31 23 -13 19 -14 22 -1 25 8
2 12 10 9 18 -4 11 -9 12 -19 3 -10 -8 -14 -8 -14 0 0 6 4 11 9 11 5 0 9 11 9
24 0 27 -27 44 -39 25 -4 -7 -14 -9 -23 -6 -11 5 -16 1 -16 -14 0 -12 -4 -17
-11 -14 -6 4 -8 13 -5 21 3 8 -1 14 -9 14 -8 0 -15 -7 -15 -15 0 -9 -6 -15
-12 -14 -27 3 -37 -2 -43 -20 -6 -19 -7 -19 -28 2 -21 21 -22 21 -26 2 -2 -10
-10 -30 -19 -43 -14 -22 -16 -23 -22 -6 -5 14 -8 10 -14 -16 -6 -32 -8 -34
-21 -17 -8 12 -15 14 -20 7 -3 -5 -11 -8 -16 -5 -15 10 -10 22 11 28 11 3 20
1 20 -4 0 -16 18 -10 23 9 2 9 8 25 12 35 4 9 3 17 -3 17 -5 0 -12 -9 -15 -21
-6 -22 -34 -21 -29 0 5 25 -15 0 -33 -39 -24 -54 -55 -53 -70 3 -2 4 -3 21 -4
37 -1 24 -6 30 -23 30 -21 0 -21 -1 -3 -14 11 -8 16 -19 12 -30 -4 -9 -1 -16
5 -16 7 0 6 -5 -2 -15 -7 -8 -18 -15 -26 -15 -16 0 -28 -35 -20 -63 6 -27 4
-43 -7 -39 -5 1 -6 -2 -2 -8 3 -5 15 -10 26 -10 10 0 19 -4 19 -8 0 -13 -43
-9 -58 6 -8 7 -18 10 -23 7 -5 -4 -9 3 -9 14 0 22 -14 28 -25 11 -3 -5 -1 -10
5 -10 21 0 4 -24 -22 -31 -29 -8 -38 8 -38 69 0 21 -4 31 -11 27 -6 -4 -9 -22
-7 -40 1 -19 -1 -37 -5 -41 -4 -4 -7 0 -7 9 0 11 -8 17 -22 17 -17 0 -19 3
-10 12 17 17 15 33 -3 18 -8 -7 -15 -27 -15 -44 0 -24 -7 -36 -29 -49 -16 -9
-38 -18 -50 -20 -11 -2 -24 -6 -27 -10 -4 -4 -15 -7 -25 -7 -18 0 -29 19 -29
51 0 10 -7 19 -15 19 -14 0 -21 -56 -15 -127 1 -17 -4 -23 -20 -23 -11 0 -23
7 -26 15 -4 8 -11 12 -16 9 -7 -4 -8 5 -3 25 5 24 3 31 -9 31 -9 0 -23 -11
-31 -24 -16 -24 -16 -58 1 -148 4 -18 1 -28 -6 -28 -7 0 -10 7 -6 15 3 9 0 15
-9 15 -8 0 -15 5 -15 11 0 5 -4 7 -10 4 -16 -10 -12 7 7 27 16 18 16 18 -3 12
-10 -4 -36 -19 -56 -34 -27 -19 -34 -30 -27 -41 7 -12 9 -12 9 0 0 8 2 12 5 9
8 -8 -6 -38 -17 -38 -17 0 -54 -45 -71 -86 l-15 -39 0 59 c0 32 -4 61 -9 65
-6 3 -15 57 -19 119 -7 88 -7 112 3 112 7 0 13 7 13 15 0 23 -19 18 -31 -9 -7
-14 -17 -22 -25 -19 -8 3 -29 -4 -48 -15 l-35 -20 4 21 c6 27 12 32 60 47 22
6 58 20 80 30 54 25 100 36 91 22 -3 -6 -2 -13 4 -17 5 -3 10 3 10 14 0 12 5
21 10 21 6 0 10 -4 10 -10 0 -13 32 0 47 19 11 13 14 14 22 2 7 -11 10 -10 15
6 3 10 23 27 44 36 43 19 66 22 57 8 -3 -5 -1 -12 5 -16 5 -3 10 3 10 14 0 15
11 24 48 35 26 8 67 22 91 31 36 13 46 14 52 3 7 -10 9 -10 9 2 0 11 27 25 83
43 99 32 94 32 100 10 4 -14 5 -13 6 4 1 18 9 24 41 29 22 4 43 11 46 15 3 5
9 7 14 4 5 -3 11 -1 15 5 3 5 15 10 26 10 11 0 45 9 77 19 31 11 71 22 87 25
48 8 78 17 113 33 18 8 42 11 53 8 11 -4 35 0 52 8 77 35 87 35 82 -5z m469
17 c-4 -8 -8 -15 -10 -15 -2 0 -4 7 -4 15 0 8 4 15 10 15 5 0 7 -7 4 -15z
m1143 -7 c-3 -8 -6 -5 -6 6 -1 11 2 17 5 13 3 -3 4 -12 1 -19z m-744 -4 c42
-10 33 -27 -10 -19 -44 8 -53 12 -53 26 0 6 8 8 18 5 9 -3 29 -8 45 -12z
m-337 -21 c-10 -10 -19 5 -10 18 6 11 8 11 12 0 2 -7 1 -15 -2 -18z m109 -3
c-4 -12 -9 -19 -12 -17 -3 3 -2 15 2 27 4 12 9 19 12 17 3 -3 2 -15 -2 -27z
m773 3 c-4 -39 -28 -42 -28 -4 0 21 5 31 16 31 11 0 14 -8 12 -27z m-2423 7
c3 -5 1 -10 -4 -10 -6 0 -11 5 -11 10 0 6 2 10 4 10 3 0 8 -4 11 -10z m469 -5
c3 -9 0 -15 -9 -15 -9 0 -12 6 -9 15 4 8 7 15 9 15 2 0 5 -7 9 -15z m1536 5
c0 -5 7 -10 15 -10 26 0 36 -35 20 -72 l-16 -33 6 33 c6 28 4 32 -15 32 -12 0
-18 4 -15 10 3 5 1 19 -5 30 -7 13 -7 20 0 20 5 0 10 -4 10 -10z m-2726 -15
c-4 -8 -11 -12 -16 -9 -6 4 -5 10 3 15 19 12 19 11 13 -6z m2236 -7 c0 -6 -6
-5 -15 2 -8 7 -15 14 -15 16 0 2 7 1 15 -2 8 -4 15 -11 15 -16z m176 -1 c-3
-15 4 -31 20 -46 13 -13 21 -27 18 -32 -3 -5 -1 -9 5 -9 19 0 1 -26 -19 -27
-13 -1 -18 4 -15 17 3 14 -1 17 -13 13 -9 -4 -20 -11 -23 -16 -16 -23 -54 38
-43 68 10 24 26 17 19 -7 -4 -16 -4 -19 3 -9 5 7 15 11 21 7 7 -4 9 -1 5 8 -5
14 11 56 22 56 2 0 3 -10 0 -23z m844 14 c0 -40 -32 -54 -50 -22 -10 20 -10
20 43 30 4 0 7 -3 7 -8z m135 -15 c0 -13 -3 -22 -7 -20 -4 2 -9 0 -13 -6 -11
-17 -35 -11 -35 10 0 12 5 17 13 14 8 -3 20 2 27 11 16 19 15 19 15 -9z
m-2725 -31 c0 -25 -4 -45 -10 -45 -11 0 -13 33 -4 68 10 34 14 27 14 -23z
m1470 35 c0 -5 -7 -7 -15 -4 -8 4 -15 8 -15 10 0 2 7 4 15 4 8 0 15 -4 15 -10z
m188 -10 c-14 -22 -24 -19 -15 5 4 8 11 15 17 15 6 0 6 -7 -2 -20z m980 -17
c-3 -15 -6 -15 -17 6 -8 14 -9 21 -2 17 6 -4 11 -1 12 6 0 10 2 10 6 1 2 -7 3
-21 1 -30z m-3066 19 c3 8 7 6 11 -5 5 -12 1 -17 -12 -17 -10 0 -22 7 -25 16
-5 14 -4 15 8 5 11 -9 15 -9 18 1z m323 -40 c-9 -9 -25 11 -25 31 1 21 1 21
15 -3 7 -14 12 -27 10 -28z m235 33 c11 -13 10 -14 -2 -10 -9 4 -19 -3 -25
-17 -10 -23 -10 -23 -10 4 0 15 3 25 8 22 5 -3 9 0 9 5 0 15 5 14 20 -4z
m-1840 -5 c0 -5 -5 -10 -11 -10 -5 0 -7 5 -4 10 3 6 8 10 11 10 2 0 4 -4 4
-10z m1568 -9 c3 -8 -1 -12 -9 -9 -7 2 -15 10 -17 17 -3 8 1 12 9 9 7 -2 15
-10 17 -17z m2316 3 c9 -8 16 -18 16 -20 0 -9 -35 1 -42 11 -20 27 1 34 26 9z
m1464 9 c-10 -2 -18 -9 -18 -14 0 -5 -5 -9 -11 -9 -5 0 -8 4 -5 9 4 5 0 12 -6
14 -7 3 3 5 22 5 19 0 27 -2 18 -5z m-4244 -19 c3 -9 6 -24 6 -35 0 -16 -3
-18 -19 -10 -10 6 -21 8 -23 5 -3 -3 -8 7 -10 21 -4 19 -2 25 8 21 8 -3 14 -1
14 4 0 16 17 11 24 -6z m2069 -26 c-6 -41 -5 -42 12 -28 11 9 16 10 11 3 -4
-7 -3 -13 3 -13 6 0 8 -7 5 -15 -4 -8 -1 -15 4 -15 6 0 13 10 15 23 4 21 4 21
6 -3 1 -14 8 -34 16 -44 12 -16 12 -22 2 -28 -20 -12 -27 -9 -20 10 5 14 3 14
-9 -2 -15 -19 -16 -18 -23 22 -4 23 -11 40 -16 36 -5 -3 -13 6 -18 19 -6 14
-13 27 -18 29 -4 3 -2 3 5 2 10 -3 17 15 13 39 0 4 4 7 9 7 6 0 8 -16 3 -42z
m104 27 c0 -17 -13 -20 -21 -6 -4 5 0 12 6 14 7 3 13 6 14 6 0 1 1 -6 1 -14z
m377 -9 c-3 -9 -10 -13 -15 -10 -5 3 -3 11 4 19 15 16 19 13 11 -9z m1117 2
c11 -21 11 -22 -4 -9 -10 7 -17 17 -17 22 0 15 9 10 21 -13z m-1911 2 c0 -5
-2 -10 -4 -10 -3 0 -8 5 -11 10 -3 6 -1 10 4 10 6 0 11 -4 11 -10z m1140 -42
c0 -5 -9 -8 -20 -8 -12 0 -20 -7 -20 -17 0 -15 -2 -16 -10 -3 -10 16 -4 46 14
66 8 9 14 7 23 -10 7 -11 12 -24 13 -28z m648 38 c-2 0 -13 -10 -25 -20 -13
-11 -23 -14 -23 -8 0 16 30 43 41 36 6 -3 9 -7 7 -8z m-3272 -33 c-11 -11 -19
6 -11 24 8 17 8 17 12 0 3 -10 2 -21 -1 -24z m1839 27 c3 -6 -1 -7 -9 -4 -18
7 -21 14 -7 14 6 0 13 -4 16 -10z m95 -9 c0 -20 -27 -48 -37 -38 -3 4 -12 2
-20 -4 -11 -10 -12 -7 -4 12 5 13 16 23 25 23 9 -1 16 4 16 12 0 8 5 14 10 14
6 0 10 -8 10 -19z m1210 -2 c0 -6 -4 -7 -10 -4 -5 3 -10 11 -10 16 0 6 5 7 10
4 6 -3 10 -11 10 -16z m-973 5 c-3 -3 -12 -4 -19 -1 -8 3 -5 6 6 6 11 1 17 -2
13 -5z m154 -24 c5 0 9 3 9 8 0 4 14 8 30 9 17 1 30 -1 29 -5 -1 -15 -18 -46
-18 -35 -1 14 -41 5 -41 -9 0 -6 -7 -5 -15 2 -8 7 -14 24 -14 39 1 17 3 20 6
9 2 -10 9 -18 14 -18z m559 -16 c36 -9 79 -18 96 -19 40 -3 71 -20 54 -30 -7
-4 -16 -2 -20 4 -9 16 -61 4 -77 -17 -7 -9 -13 -12 -13 -8 0 5 -7 3 -15 -4
-18 -15 -21 1 -5 30 7 13 7 21 0 25 -6 3 -13 0 -16 -8 -3 -9 -15 -12 -32 -10
l-27 5 28 -19 27 -19 -25 -24 c-24 -23 -26 -23 -43 -6 -16 16 -16 17 3 10 18
-7 18 -6 6 9 -7 9 -20 17 -27 17 -26 0 -61 40 -60 68 1 23 5 27 29 24 17 -2
27 1 27 9 0 8 5 7 13 -4 6 -9 41 -24 77 -33z m-2915 15 c-7 -10 -35 -1 -35 11
0 5 9 6 20 3 11 -3 17 -9 15 -14z m301 13 c6 -4 14 -17 18 -29 6 -19 4 -23
-13 -23 -22 0 -46 34 -36 50 7 12 16 12 31 2z m1184 -2 c0 -5 -7 -10 -16 -10
-9 0 -18 -10 -22 -22 l-5 -22 -9 23 c-4 13 -6 27 -2 32 7 12 54 11 54 -1z
m785 0 c-3 -5 -10 -10 -16 -10 -5 0 -9 5 -9 10 0 6 7 10 16 10 8 0 12 -4 9
-10z m218 -5 c-3 -9 -8 -14 -10 -11 -3 3 -2 9 2 15 9 16 15 13 8 -4z m57 -22
c0 -20 -16 -8 -23 17 -4 17 -3 19 9 9 8 -6 14 -18 14 -26z m196 2 c-7 -18 -26
-20 -26 -2 0 18 24 41 28 27 2 -6 1 -17 -2 -25z m-741 -33 c-9 -9 -25 19 -24
43 0 16 2 15 15 -8 9 -16 13 -32 9 -35z m567 26 c-8 -8 -9 -4 -5 13 4 13 8 18
11 10 2 -7 -1 -18 -6 -23z m888 28 c0 -2 -7 -6 -15 -10 -8 -3 -15 -1 -15 4 0
6 7 10 15 10 8 0 15 -2 15 -4z m-3910 -35 c0 -11 9 -26 20 -34 11 -8 18 -16
15 -19 -9 -9 -55 4 -49 13 3 5 0 9 -5 9 -6 0 -11 11 -11 25 0 16 6 25 15 25 8
0 15 -9 15 -19z m2670 -24 c0 -4 4 -6 9 -2 9 5 13 -3 26 -59 6 -30 -7 -48 -30
-39 -14 5 -8 44 8 55 6 3 -1 17 -16 31 -15 13 -27 33 -27 43 1 18 1 18 15 0 8
-11 15 -24 15 -29z m-2355 13 c0 -8 -8 -16 -17 -18 -13 -2 -18 3 -18 18 0 15
5 20 18 18 9 -2 17 -10 17 -18z m365 -1 c0 -6 -4 -7 -10 -4 -5 3 -10 11 -10
16 0 6 5 7 10 4 6 -3 10 -11 10 -16z m1570 1 c0 -5 3 -16 7 -25 5 -15 3 -16
-15 -6 -15 8 -21 8 -25 -2 -8 -22 -20 1 -13 27 4 18 11 23 26 19 11 -3 20 -9
20 -13z m-3590 0 c0 -5 -2 -10 -4 -10 -3 0 -8 5 -11 10 -3 6 -1 10 4 10 6 0
11 -4 11 -10z m1889 -33 c0 -21 -1 -21 -9 -2 -12 28 -12 37 0 30 6 -3 10 -16
9 -28z m1482 6 c-4 -16 -6 -34 -5 -40 1 -7 2 -17 3 -23 2 -18 18 -11 24 10 5
20 37 29 37 10 0 -5 -7 -10 -15 -10 -8 0 -15 -6 -15 -14 0 -8 -6 -17 -12 -19
-8 -4 -7 -6 4 -6 26 -1 48 10 48 25 0 8 2 14 4 14 2 0 13 3 23 6 14 5 15 4 3
-4 -11 -8 -12 -17 -4 -39 7 -20 6 -39 -4 -68 -7 -22 -14 -48 -15 -57 -1 -10
-5 -18 -9 -18 -5 0 -6 11 -2 25 5 19 2 25 -10 25 -9 0 -16 6 -17 13 -1 6 -7
-6 -14 -28 -11 -34 -14 -36 -14 -14 -1 18 -8 28 -21 32 -17 4 -20 0 -20 -30 0
-20 -4 -32 -10 -28 -6 3 -7 18 -4 32 6 23 5 25 -12 18 -10 -4 -28 -7 -39 -7
-10 1 -25 -4 -32 -9 -15 -13 -33 -3 -33 17 0 10 8 13 25 10 14 -3 25 0 25 5 0
5 -7 9 -15 9 -12 0 -13 3 -3 19 11 18 12 18 41 -3 21 -15 31 -17 34 -8 3 6 10
12 17 12 9 0 12 9 8 25 -2 14 -8 22 -13 19 -10 -6 -12 19 -2 29 3 4 11 2 18
-3 8 -7 10 -2 7 20 -2 16 -8 27 -13 24 -5 -3 -9 4 -9 16 0 12 4 19 9 16 5 -3
14 1 21 9 18 21 20 19 11 -12z m701 5 c-6 -6 -15 -8 -19 -4 -4 4 -1 11 7 16
19 12 27 3 12 -12z m45 -42 c-17 -16 -47 -16 -47 -1 0 7 10 25 23 39 l22 25 7
-26 c4 -15 2 -30 -5 -37z m86 42 c-8 -30 -23 -49 -34 -42 -10 6 20 64 32 64 4
0 5 -10 2 -22z m365 1 c12 -11 20 -24 17 -29 -3 -5 0 -12 6 -16 8 -4 9 -3 5 4
-4 7 -2 12 3 12 6 0 11 -11 11 -24 0 -13 6 -26 13 -29 9 -3 9 -7 0 -17 -9 -10
-13 -7 -19 13 -3 15 -10 25 -14 22 -5 -3 -11 1 -13 7 -4 9 -15 3 -34 -17 -31
-32 -63 -44 -63 -23 0 9 -3 9 -10 -2 -8 -12 -10 -11 -10 7 0 12 -6 26 -13 30
-17 10 -30 43 -17 43 5 0 19 -12 31 -27 12 -16 19 -20 16 -10 -8 21 8 23 17 2
3 -8 10 -15 16 -15 6 0 8 5 5 10 -3 6 1 10 9 10 8 0 18 5 22 12 4 7 3 8 -4 4
-7 -4 -12 -1 -12 9 0 8 -7 18 -15 21 -8 4 -12 10 -9 15 9 15 39 10 62 -12z
m-1283 2 c-6 -5 -21 -12 -35 -16 -22 -7 -23 -6 -11 9 7 9 23 16 34 16 13 0 17
-4 12 -9z m631 -17 c-4 -9 -9 -15 -11 -12 -3 3 -3 13 1 22 4 9 9 15 11 12 3
-3 3 -13 -1 -22z m348 -14 c10 -13 9 -13 -6 -1 -10 7 -18 21 -17 30 0 13 1 14
6 1 3 -8 11 -22 17 -30z m-2454 -11 c0 -9 -6 -19 -13 -22 -14 -5 -22 37 -11
55 8 12 24 -10 24 -33z m2504 14 c-7 -35 -14 -43 -14 -14 0 12 -4 19 -10 16
-5 -3 -10 -2 -10 4 0 5 8 12 18 14 9 3 18 5 19 6 1 0 -1 -11 -3 -26z m503 7
c-5 -30 -14 -34 -27 -9 -11 19 -10 21 4 16 9 -4 16 -2 16 3 0 6 2 10 5 10 3 0
4 -9 2 -20z m523 10 c0 -5 -15 -9 -32 -9 l-33 1 30 8 c17 4 31 8 33 9 1 0 2
-3 2 -9z m-3810 -21 c0 -11 -4 -17 -10 -14 -5 3 -10 13 -10 21 0 8 5 14 10 14
6 0 10 -9 10 -21z m1554 -1 c8 -32 7 -48 -2 -48 -5 0 -9 6 -10 13 0 6 -4 22
-7 35 -4 12 -3 22 3 22 5 0 12 -10 16 -22z m228 -16 c-5 -1 -7 -13 -5 -25 4
-15 2 -19 -4 -12 -14 14 -27 68 -14 61 5 -4 13 -1 18 6 5 9 9 8 11 -7 3 -10 0
-21 -6 -23z m1653 27 c11 -17 -1 -21 -15 -4 -8 9 -8 15 -2 15 6 0 14 -5 17
-11z m-1081 -15 c9 -24 2 -26 -12 -4 -7 11 -8 20 -3 20 5 0 12 -7 15 -16z
m104 -4 c5 -13 3 -13 -11 -1 -12 9 -17 10 -17 2 0 -7 -4 -9 -10 -6 -5 3 -10
11 -10 16 0 16 43 6 48 -11z m417 -15 c-2 -19 1 -35 6 -35 5 0 9 5 9 10 0 6 4
10 9 10 9 0 26 -48 23 -63 -4 -17 28 -18 53 -1 30 20 36 17 28 -14 -7 -29 -70
-57 -89 -41 -18 15 -18 33 0 26 10 -4 13 -1 10 8 -5 11 -37 28 -54 27 -3 0 -6
24 -8 54 -2 30 1 54 7 54 5 0 8 -16 6 -35z m485 9 c0 -8 -4 -14 -10 -14 -5 0
-10 9 -10 21 0 11 5 17 10 14 6 -3 10 -13 10 -21z m-1890 6 c0 -5 -5 -10 -11
-10 -5 0 -7 5 -4 10 3 6 8 10 11 10 2 0 4 -4 4 -10z m594 1 c3 -5 -5 -8 -19
-8 -14 0 -22 3 -19 8 3 5 11 9 19 9 8 0 16 -4 19 -9z m-634 -22 c0 -4 -6 -6
-14 -3 -10 4 -13 -3 -10 -25 4 -32 -13 -52 -26 -31 -5 8 -9 7 -14 -6 -8 -20
30 -57 51 -49 6 2 18 -7 27 -20 14 -21 14 -24 -1 -29 -9 -4 -20 -1 -25 6 -22
37 -26 39 -53 32 -15 -4 -30 -15 -32 -25 -3 -11 -10 -19 -15 -19 -5 0 -6 5 -3
10 4 6 2 17 -4 24 -14 17 -4 46 15 46 23 0 29 29 9 44 -16 11 -15 14 9 29 21
14 24 15 20 2 -4 -8 -1 -15 5 -15 6 0 11 5 11 10 0 17 24 38 37 33 7 -3 13 -9
13 -14z m316 6 c4 -8 3 -23 -1 -32 -7 -17 -8 -16 -15 2 -5 11 -9 26 -9 33 -1
17 18 15 25 -3z m2124 -1 c0 -8 -4 -12 -10 -9 -5 3 -10 10 -10 16 0 5 5 9 10
9 6 0 10 -7 10 -16z m-3665 -4 c3 -5 1 -10 -4 -10 -6 0 -11 5 -11 10 0 6 2 10
4 10 3 0 8 -4 11 -10z m2172 -12 c-3 -8 -6 -5 -6 6 -1 11 2 17 5 13 3 -3 4
-12 1 -19z m1458 -3 c0 -28 -29 -25 -33 3 -3 19 0 23 15 20 10 -2 18 -12 18
-23z m-2242 -28 c-4 -6 -10 -2 -14 9 -12 31 -9 40 6 20 8 -10 11 -24 8 -29z
m1084 21 c-3 -8 -6 -5 -6 6 -1 11 2 17 5 13 3 -3 4 -12 1 -19z m1083 16 c0 -7
-27 -34 -34 -34 -3 0 -6 9 -6 20 0 13 7 20 20 20 11 0 20 -3 20 -6z m-3650
-14 c0 -5 -2 -10 -4 -10 -3 0 -8 5 -11 10 -3 6 -1 10 4 10 6 0 11 -4 11 -10z
m1350 -5 c0 -9 7 -18 15 -21 17 -7 18 -13 5 -34 -9 -13 -11 -13 -20 0 -9 13
-12 13 -21 -4 -9 -15 -13 -16 -20 -5 -12 19 -11 32 1 24 6 -3 10 1 10 9 0 9 5
16 11 16 6 0 9 7 5 15 -3 8 -1 15 4 15 6 0 10 -7 10 -15z m230 -25 c0 -13 -1
-13 -10 0 -5 8 -10 22 -10 30 0 13 1 13 10 0 5 -8 10 -22 10 -30z m542 -2 c-5
-19 -7 -20 -10 -5 -3 13 -10 16 -25 13 -12 -3 -16 -3 -9 0 6 3 12 12 12 20 0
11 4 12 19 4 14 -7 17 -16 13 -32z m952 31 c-3 -6 0 -15 7 -20 10 -6 7 -8 -9
-6 -25 1 -27 8 -10 25 15 15 21 16 12 1z m-3137 -21 c-3 -8 -6 -5 -6 6 -1 11
2 17 5 13 3 -3 4 -12 1 -19z m138 3 c-3 -6 -11 -11 -16 -11 -5 0 -4 6 3 14 14
16 24 13 13 -3z m1373 -7 c9 5 22 -24 22 -49 0 -5 -13 -10 -30 -10 -29 0 -30
1 -24 34 5 24 3 32 -5 27 -12 -8 -15 6 -4 18 4 4 13 0 20 -9 6 -10 16 -14 21
-11z m1202 16 c0 -5 -4 -10 -10 -10 -5 0 -10 5 -10 10 0 6 5 10 10 10 6 0 10
-4 10 -10z m49 -22 c-8 -18 -17 -24 -30 -21 -31 8 -36 27 -5 21 14 -3 26 -1
26 3 0 5 -6 9 -12 10 -7 0 -4 4 7 8 26 11 28 8 14 -21z m247 17 c6 -14 -3 -52
-10 -44 -2 2 -6 16 -10 32 -7 29 10 39 20 12z m-3058 -14 c3 -8 -1 -12 -9 -9
-7 2 -15 10 -17 17 -3 8 1 12 9 9 7 -2 15 -10 17 -17z m1719 -3 c-3 -8 -6 -5
-6 6 -1 11 2 17 5 13 3 -3 4 -12 1 -19z m428 12 c3 -5 -1 -10 -9 -10 -8 0 -18
5 -21 10 -3 6 1 10 9 10 8 0 18 -4 21 -10z m1198 -10 c-3 -12 0 -20 6 -20 7 0
9 -5 6 -10 -13 -21 -36 10 -24 31 13 25 18 24 12 -1z m-1265 -5 c3 -3 -2 -13
-12 -23 -10 -12 -14 -26 -10 -37 5 -13 3 -16 -7 -13 -8 3 -13 17 -13 37 1 17
-2 31 -7 31 -5 0 -9 -4 -9 -9 0 -5 -9 -13 -21 -16 -12 -4 -18 -12 -15 -21 3
-8 1 -14 -4 -14 -6 0 -10 6 -10 13 1 39 81 79 108 52z m597 5 c3 -5 1 -10 -4
-10 -6 0 -11 5 -11 10 0 6 2 10 4 10 3 0 8 -4 11 -10z m355 0 c0 -5 -2 -10 -4
-10 -3 0 -8 5 -11 10 -3 6 -1 10 4 10 6 0 11 -4 11 -10z m-3437 -20 c-4 -15 0
-20 13 -20 16 0 17 -2 4 -10 -8 -5 -18 -10 -22 -10 -10 0 -10 44 -1 53 10 11
11 8 6 -13z m1547 -2 c0 -16 -3 -19 -11 -11 -6 6 -8 16 -5 22 11 17 16 13 16
-11z m91 -5 c-12 -20 -14 -14 -5 12 4 9 9 14 11 11 3 -2 0 -13 -6 -23z m415
-6 c8 3 14 13 14 22 0 10 3 12 8 5 4 -6 16 -14 27 -18 19 -8 19 -8 -2 -17 -13
-4 -23 -13 -23 -18 0 -5 -9 -7 -20 -4 -26 7 -26 -17 0 -40 12 -10 17 -23 13
-33 -3 -9 0 -20 8 -25 10 -6 10 -9 2 -9 -7 0 -13 -10 -14 -22 0 -13 -3 -18 -5
-12 -2 6 -19 8 -36 6 -26 -4 -30 -2 -25 12 4 9 2 16 -2 16 -5 0 -7 9 -4 20 3
11 11 20 19 20 18 0 27 18 19 38 -5 13 -8 14 -14 3 -5 -7 -8 9 -8 40 1 48 2
50 15 31 7 -11 20 -18 28 -15z m2054 11 c0 -13 -23 -5 -28 10 -2 7 2 10 12 6
9 -3 16 -11 16 -16z m178 -6 c4 -25 -23 -41 -41 -23 -8 8 -5 11 13 11 19 0 21
3 12 12 -16 16 -15 31 1 26 6 -3 13 -14 15 -26z m-3678 8 c0 -5 -4 -10 -10
-10 -5 0 -10 5 -10 10 0 6 5 10 10 10 6 0 10 -4 10 -10z m965 0 c3 -5 1 -10
-4 -10 -6 0 -11 5 -11 10 0 6 2 10 4 10 3 0 8 -4 11 -10z m980 -30 c-4 -6 -1
-18 7 -27 11 -14 10 -15 -12 -8 -31 10 -53 32 -40 40 5 3 10 2 10 -4 0 -6 7
-8 16 -4 11 4 12 9 5 16 -6 6 -11 15 -11 20 0 5 7 1 16 -7 8 -9 12 -21 9 -26z
m-877 16 c-7 -8 -15 -12 -17 -11 -5 6 10 25 20 25 5 0 4 -6 -3 -14z m1189 -7
c-3 -13 0 -22 10 -26 8 -3 19 -17 24 -31 5 -14 12 -22 16 -18 4 3 -3 20 -16
36 -24 34 -19 36 24 11 22 -13 30 -25 30 -47 0 -21 5 -29 18 -29 17 0 36 -20
37 -37 0 -17 -30 -6 -41 14 -8 14 -14 18 -17 10 -7 -22 -20 -13 -14 11 5 19 3
20 -10 9 -13 -10 -17 -10 -22 0 -4 9 -5 9 -5 -2 2 -32 -2 -38 -21 -33 -16 4
-19 2 -14 -11 3 -9 1 -16 -5 -16 -6 0 -11 6 -11 14 0 8 -7 16 -15 20 -12 4
-13 11 -5 31 14 37 13 40 -7 22 -28 -24 -58 -25 -59 -2 -3 38 -6 40 -14 10
l-9 -30 2 30 c2 31 37 51 37 21 0 -10 6 -13 15 -10 11 5 13 2 8 -12 -4 -12 -3
-15 6 -10 6 4 11 17 9 29 -2 14 2 21 11 19 8 -2 11 3 8 13 -4 9 -1 15 8 15 8
0 15 5 15 10 0 6 3 10 6 10 4 0 4 -9 1 -21z m142 -24 c21 -12 12 -33 -11 -27
-24 6 -47 29 -48 47 0 6 5 3 10 -5 8 -12 11 -11 17 9 6 24 7 24 14 4 4 -12 12
-24 18 -28z m88 39 c-3 -3 -12 -4 -19 -1 -8 3 -5 6 6 6 11 1 17 -2 13 -5z
m-392 -14 c3 -5 2 -10 -4 -10 -5 0 -13 5 -16 10 -3 6 -2 10 4 10 5 0 13 -4 16
-10z m35 -6 c0 -8 -5 -12 -10 -9 -6 4 -8 11 -5 16 9 14 15 11 15 -7z m760 6
c0 -5 -2 -10 -4 -10 -3 0 -8 5 -11 10 -3 6 -1 10 4 10 6 0 11 -4 11 -10z m103
-15 c-3 -10 1 -15 15 -15 22 0 38 -15 24 -24 -5 -3 -23 4 -41 15 -26 16 -29
21 -19 33 16 17 29 11 21 -9z m467 15 c0 -5 -4 -10 -9 -10 -6 0 -13 5 -16 10
-3 6 1 10 9 10 9 0 16 -4 16 -10z m-3470 -15 c0 -8 -4 -15 -10 -15 -5 0 -7 7
-4 15 4 8 8 15 10 15 2 0 4 -7 4 -15z m2002 -26 c-9 -4 -20 -1 -24 5 -11 16
-10 28 2 21 6 -3 10 -1 10 6 0 7 6 4 14 -7 13 -17 13 -20 -2 -25z m333 31 c3
-5 1 -10 -4 -10 -6 0 -11 5 -11 10 0 6 2 10 4 10 3 0 8 -4 11 -10z m350 0 c3
-5 -1 -10 -9 -10 -9 0 -16 5 -16 10 0 6 4 10 9 10 6 0 13 -4 16 -10z m-35 -10
c0 -5 -4 -10 -10 -10 -5 0 -10 5 -10 10 0 6 5 10 10 10 6 0 10 -4 10 -10z
m800 0 c0 -5 -4 -10 -9 -10 -6 0 -13 -19 -16 -43 -4 -23 -15 -53 -24 -66 -16
-20 -22 -22 -47 -14 -19 7 -28 16 -26 27 2 11 -4 16 -23 16 -19 0 -25 5 -25
23 0 20 4 22 40 19 36 -4 40 -2 40 18 0 19 4 21 30 15 29 -6 43 8 18 18 -7 3
-1 6 15 6 15 1 27 -3 27 -9z m-1340 -21 c0 -5 -4 -9 -10 -9 -5 0 -10 7 -10 16
0 8 5 12 10 9 6 -3 10 -10 10 -16z m758 -24 c-3 -3 -13 7 -23 22 l-17 28 23
-22 c12 -12 20 -25 17 -28z m-1759 2 c0 -21 -1 -21 -9 -2 -12 28 -12 37 0 30
6 -3 10 -16 9 -28z m721 17 c0 -8 -4 -12 -10 -9 -5 3 -10 10 -10 16 0 5 5 9
10 9 6 0 10 -7 10 -16z m658 -65 c12 -12 22 -28 22 -33 0 -6 -11 2 -23 18 -15
19 -28 26 -36 21 -8 -4 -17 -2 -22 6 -13 21 -11 29 7 29 10 0 14 6 11 14 -3 8
-3 17 1 21 4 4 10 -7 13 -23 3 -16 16 -40 27 -53z m1120 64 c-5 -24 -25 -27
-31 -3 -4 15 0 20 15 20 13 0 18 -6 16 -17z m-3688 -3 c0 -5 -2 -10 -4 -10 -3
0 -8 5 -11 10 -3 6 -1 10 4 10 6 0 11 -4 11 -10z m1870 0 c0 -5 -2 -10 -4 -10
-3 0 -8 5 -11 10 -3 6 -1 10 4 10 6 0 11 -4 11 -10z m139 -13 c15 4 17 0 12
-29 -3 -19 -6 -26 -9 -15 -2 9 -12 17 -23 17 -20 0 -23 8 -12 37 6 16 8 16 11
2 2 -11 10 -15 21 -12z m1578 15 c7 -4 14 -23 15 -41 3 -28 -1 -34 -18 -37
-27 -4 -41 12 -49 54 -5 28 -3 32 17 32 13 0 28 -4 35 -8z m-2487 -16 c0 -23
-16 -27 -17 -5 -1 10 2 19 8 19 5 0 9 -6 9 -14z m1000 4 c0 -5 -2 -10 -4 -10
-3 0 -8 5 -11 10 -3 6 -1 10 4 10 6 0 11 -4 11 -10z m-692 -25 c15 -32 15 -32
-1 -38 -7 -3 -13 3 -13 12 -1 9 -4 24 -9 34 -12 27 11 20 23 -8z m550 0 c6
-14 10 -25 8 -25 -2 0 -11 11 -20 25 -9 14 -13 25 -8 25 5 0 14 -11 20 -25z
m726 16 c3 -5 -1 -11 -9 -15 -15 -6 -29 7 -18 18 9 9 21 8 27 -3z m81 -41 c-6
-9 -9 -9 -16 1 -4 7 -11 10 -14 7 -4 -4 0 -17 9 -30 20 -28 21 -49 2 -22 -14
18 -15 18 -28 1 -13 -17 -14 -17 -13 7 1 14 9 34 19 45 10 11 15 25 11 33 -4
7 2 3 15 -8 13 -13 19 -27 15 -34z m333 32 c2 -7 -2 -10 -12 -6 -9 3 -16 11
-16 16 0 13 23 5 28 -10z m-3696 -7 c0 -5 -5 -11 -11 -13 -6 -2 -11 4 -11 13
0 9 5 15 11 13 6 -2 11 -8 11 -13z m1889 2 c-1 -12 -15 -9 -19 4 -3 6 1 10 8
8 6 -3 11 -8 11 -12z m1357 -38 c-17 -11 -38 9 -38 34 0 20 1 20 25 -3 18 -17
22 -26 13 -31z m-3150 10 c-3 -8 -7 -3 -11 10 -4 17 -3 21 5 13 5 -5 8 -16 6
-23z m1312 21 c0 -5 -4 -10 -10 -10 -5 0 -10 5 -10 10 0 6 5 10 10 10 6 0 10
-4 10 -10z m445 0 c3 -5 1 -10 -4 -10 -6 0 -11 5 -11 10 0 6 2 10 4 10 3 0 8
-4 11 -10z m672 -2 c17 -22 21 -53 8 -65 -10 -9 -15 -6 -24 13 -21 47 -9 84
16 52z m-63 -22 c-3 -9 -10 -13 -15 -10 -5 3 -3 11 4 19 15 16 19 13 11 -9z
m206 14 c0 -5 -2 -10 -4 -10 -3 0 -8 5 -11 10 -3 6 -1 10 4 10 6 0 11 -4 11
-10z m30 -10 c0 -13 -6 -20 -17 -19 -11 0 -13 3 -5 6 6 2 12 11 12 19 0 8 2
14 5 14 3 0 5 -9 5 -20z m85 10 c-4 -6 -1 -17 5 -25 10 -12 10 -18 0 -30 -7
-8 -16 -13 -20 -10 -4 3 -13 -2 -20 -10 -9 -10 -9 -15 -1 -15 6 0 11 6 12 13
0 9 2 9 6 -1 3 -9 9 -10 18 -2 9 8 13 5 13 -14 0 -23 -2 -23 -32 -11 -36 15
-49 54 -19 56 10 1 24 1 31 0 11 -2 11 2 1 21 -11 21 -13 21 -19 3 -5 -13 -9
-15 -14 -6 -9 14 -9 14 19 29 25 14 28 14 20 2z m35 -25 c0 -5 -5 -3 -10 5 -5
8 -10 20 -10 25 0 6 5 3 10 -5 5 -8 10 -19 10 -25z m-1320 15 c0 -5 -2 -10 -4
-10 -3 0 -8 5 -11 10 -3 6 -1 10 4 10 6 0 11 -4 11 -10z m240 -6 c0 -8 -5 -12
-10 -9 -6 4 -8 11 -5 16 9 14 15 11 15 -7z m1769 0 c9 -8 -12 -22 -25 -17 -13
5 -15 1 -9 -15 9 -32 -8 -27 -35 10 -23 31 -23 31 -1 25 11 -3 21 -1 21 5 0 8
37 2 49 -8z m-1999 -19 c-7 -9 -15 -13 -17 -11 -6 6 20 36 26 30 2 -2 -2 -10
-9 -19z m130 6 c0 -25 -25 -34 -42 -14 -11 14 -10 15 10 9 17 -6 21 -4 16 8
-3 9 -1 16 5 16 6 0 11 -9 11 -19z m-933 -6 c0 -8 -6 -16 -14 -19 -7 -3 -13
-10 -13 -17 0 -6 7 -9 15 -5 13 4 15 -10 15 -94 l0 -99 -34 -16 c-32 -15 -36
-15 -55 2 -12 9 -21 22 -21 27 0 19 -32 44 -49 39 -14 -4 -20 -18 -24 -65 -3
-34 -1 -71 3 -84 12 -32 1 -94 -24 -129 -11 -16 -21 -32 -21 -35 0 -2 -8 -3
-17 -2 -13 2 -18 -4 -18 -23 0 -30 -25 -59 -58 -70 -21 -6 -22 -4 -17 26 8 42
15 50 15 16 0 -27 13 -36 25 -17 3 6 1 10 -4 10 -6 0 -11 11 -11 24 0 13 -7
29 -15 36 -21 18 -7 33 24 26 23 -6 24 -5 6 5 -11 6 -30 22 -43 35 -20 21 -21
24 -5 24 11 0 14 3 7 8 -7 4 -13 16 -16 27 -2 13 -11 20 -26 19 -22 -1 -23 2
-16 55 3 31 6 58 6 61 0 36 -4 50 -17 50 -8 0 -15 5 -15 10 0 6 -5 10 -11 10
-6 0 -9 -7 -5 -15 6 -16 -26 -36 -95 -60 -38 -14 -39 -13 -39 8 0 18 2 19 10
7 8 -13 10 -13 10 1 0 9 12 21 28 28 15 7 40 19 55 27 16 8 35 14 43 14 8 0
14 5 14 10 0 6 6 10 13 10 8 0 27 6 43 14 51 24 84 28 84 11 0 -9 -4 -13 -10
-10 -5 3 -10 1 -10 -4 0 -6 7 -11 15 -11 9 0 15 9 15 23 0 19 10 28 43 42 23
9 71 30 107 45 105 45 107 45 107 25z m547 2 c3 3 6 1 6 -5 0 -16 -12 -15 -36
4 -18 15 -18 15 2 5 12 -6 24 -7 28 -4z m626 -20 c0 -5 -4 -5 -10 -2 -5 3 -10
14 -10 23 0 15 2 15 10 2 5 -8 10 -19 10 -23z m-110 13 c0 -5 -2 -10 -4 -10
-3 0 -8 5 -11 10 -3 6 -1 10 4 10 6 0 11 -4 11 -10z m862 -15 c6 -14 14 -25
18 -25 13 0 19 -40 8 -47 -7 -4 -8 -1 -3 7 5 9 2 10 -14 5 -19 -6 -21 -2 -21
29 0 20 -4 36 -10 36 -5 0 -10 5 -10 10 0 19 21 10 32 -15z m528 4 c6 -11 10
-25 8 -31 -5 -14 -38 19 -38 38 0 21 18 17 30 -7z m-1610 -24 c0 -5 -5 -3 -10
5 -5 8 -10 20 -10 25 0 6 5 3 10 -5 5 -8 10 -19 10 -25z m960 1 c0 -9 -24 -2
-32 9 -12 16 3 26 18 11 8 -8 14 -17 14 -20z m392 20 c4 -6 2 -13 -3 -17 -7
-4 -4 -13 7 -23 22 -23 3 -46 -21 -26 -12 10 -18 11 -24 2 -3 -6 -8 9 -9 33
-1 39 1 44 21 42 12 0 25 -6 29 -11z m113 -6 c-7 -22 4 -27 22 -9 7 7 15 3 26
-15 18 -27 7 -45 -13 -21 -7 8 -18 15 -24 15 -6 0 -4 -5 4 -10 12 -8 9 -10
-12 -10 -16 0 -28 3 -28 8 0 4 -3 17 -6 30 -5 18 -3 21 10 16 9 -3 16 -1 16 5
0 6 3 11 6 11 3 0 2 -9 -1 -20z m1139 1 c3 -5 -1 -12 -10 -15 -22 -9 -24 -8
-24 9 0 16 25 21 34 6z m-2679 -11 c-3 -5 -10 -10 -16 -10 -5 0 -9 5 -9 10 0
6 7 10 16 10 8 0 12 -4 9 -10z m195 0 c0 -5 -2 -10 -4 -10 -3 0 -8 5 -11 10
-3 6 -1 10 4 10 6 0 11 -4 11 -10z m156 -78 c-10 -9 -13 0 -20 48 l-6 45 16
-43 c8 -24 13 -46 10 -50z m-719 56 c-3 -8 -6 -5 -6 6 -1 11 2 17 5 13 3 -3 4
-12 1 -19z m683 -10 c0 -12 -6 -9 -26 13 -19 22 -19 22 4 8 12 -8 22 -17 22
-21z m-180 12 c0 -5 -4 -10 -10 -10 -5 0 -10 5 -10 10 0 6 5 10 10 10 6 0 10
-4 10 -10z m750 0 c0 -5 -4 -10 -10 -10 -5 0 -10 5 -10 10 0 6 5 10 10 10 6 0
10 -4 10 -10z m965 0 c-27 -12 -43 -12 -25 0 8 5 22 9 30 9 10 0 8 -3 -5 -9z
m-1675 -15 c-10 -12 -10 -18 0 -30 7 -9 10 -19 6 -23 -4 -4 -14 2 -22 12 -12
17 -12 22 3 38 19 22 31 24 13 3z m2440 11 c0 -3 -4 -8 -10 -11 -5 -3 -10 -1
-10 4 0 6 5 11 10 11 6 0 10 -2 10 -4z m-2147 -37 c-9 -9 -12 -7 -10 9 1 14 5
18 11 12 7 -7 6 -14 -1 -21z m162 0 c11 -4 53 -11 93 -14 62 -6 72 -10 72 -26
0 -12 -7 -19 -20 -19 -11 0 -28 -9 -37 -20 -10 -11 -28 -20 -40 -20 -26 0 -29
-10 -10 -29 10 -11 10 -14 0 -18 -7 -3 -13 -12 -13 -20 0 -14 -3 -14 -20 2
-21 19 -28 75 -8 75 6 0 -2 11 -18 25 -16 14 -23 25 -16 25 15 0 11 25 -4 25
-16 1 -54 25 -54 35 0 9 9 6 75 -21z m-919 -12 c2 -18 -2 -27 -12 -27 -9 0
-14 11 -14 31 0 38 22 35 26 -4z m1404 23 c0 -5 -4 -10 -10 -10 -5 0 -10 5
-10 10 0 6 5 10 10 10 6 0 10 -4 10 -10z m-1189 -13 c-1 -12 -15 -9 -19 4 -3
6 1 10 8 8 6 -3 11 -8 11 -12z m962 -2 c-3 -9 -8 -14 -10 -11 -3 3 -2 9 2 15
9 16 15 13 8 -4z m-833 -5 c0 -5 -5 -10 -11 -10 -5 0 -7 5 -4 10 3 6 8 10 11
10 2 0 4 -4 4 -10z m990 0 c0 -5 -4 -10 -10 -10 -5 0 -10 5 -10 10 0 6 5 10
10 10 6 0 10 -4 10 -10z m490 -16 c0 -8 -4 -12 -10 -9 -5 3 -10 13 -10 21 0 8
5 12 10 9 6 -3 10 -13 10 -21z m170 22 c0 -11 -19 -15 -25 -6 -3 5 1 10 9 10
9 0 16 -2 16 -4z m-1623 -28 c-3 -8 -6 -5 -6 6 -1 11 2 17 5 13 3 -3 4 -12 1
-19z m1303 7 c0 -8 -4 -15 -10 -15 -5 0 -10 7 -10 15 0 8 5 15 10 15 6 0 10
-7 10 -15z m-1460 -26 c0 -18 -2 -19 -15 -9 -8 7 -15 16 -15 21 0 5 7 9 15 9
9 0 15 -9 15 -21z m240 5 c0 -8 -4 -12 -10 -9 -5 3 -10 10 -10 16 0 5 5 9 10
9 6 0 10 -7 10 -16z m670 6 c0 -5 -2 -10 -4 -10 -3 0 -8 5 -11 10 -3 6 -1 10
4 10 6 0 11 -4 11 -10z m462 -12 c-12 -12 -35 -1 -27 12 3 5 13 6 21 3 10 -4
12 -9 6 -15z m-794 -6 c-19 -4 -25 -32 -8 -32 5 0 7 -6 4 -14 -10 -25 -29 -7
-29 27 0 30 2 33 25 28 18 -4 20 -6 8 -9z m557 8 c-3 -6 4 -14 17 -19 13 -6
17 -10 10 -10 -9 -1 -11 -8 -7 -22 10 -30 -12 -21 -33 14 -15 24 -15 29 -2 37
19 12 23 12 15 0z m415 0 c0 -5 -5 -10 -11 -10 -5 0 -7 5 -4 10 3 6 8 10 11
10 2 0 4 -4 4 -10z m410 0 c0 -5 -4 -10 -10 -10 -5 0 -10 5 -10 10 0 6 5 10
10 10 6 0 10 -4 10 -10z m-480 -15 c0 -8 -2 -15 -4 -15 -2 0 -6 7 -10 15 -3 8
-1 15 4 15 6 0 10 -7 10 -15z m-1280 -29 c0 -4 -6 -6 -14 -3 -9 4 -16 -1 -19
-11 -4 -16 -5 -15 -12 1 -9 22 25 53 37 34 4 -7 8 -16 8 -21z m240 24 c0 -5
-2 -10 -4 -10 -3 0 -8 5 -11 10 -3 6 -1 10 4 10 6 0 11 -4 11 -10z m1317 -5
c9 -24 -1 -27 -15 -5 -8 13 -8 20 -2 20 6 0 13 -7 17 -15z m158 -5 c20 -23 17
-24 -20 -10 -14 5 -23 14 -20 20 9 15 20 12 40 -10z m-2070 0 c3 -5 1 -10 -4
-10 -6 0 -11 5 -11 10 0 6 2 10 4 10 3 0 8 -4 11 -10z m1715 0 c0 -5 -2 -10
-4 -10 -3 0 -8 5 -11 10 -3 6 -1 10 4 10 6 0 11 -4 11 -10z m468 -10 c7 -11 9
-20 4 -20 -10 0 -32 22 -32 32 0 15 15 8 28 -12z m-1097 -30 c5 0 9 -10 9 -21
0 -20 -1 -20 -21 5 -14 18 -18 32 -13 44 6 15 8 14 11 -5 3 -13 9 -23 14 -23z
m149 37 c0 -1 -7 -22 -15 -47 -12 -34 -14 -37 -11 -13 3 18 1 35 -4 38 -16 10
-11 21 10 22 11 1 20 1 20 0z m-1041 -24 c-7 -8 -15 -10 -18 -6 -4 4 -10 11
-14 14 -4 4 4 7 18 7 21 0 23 -3 14 -15z m1440 -14 c13 -38 14 -49 4 -49 -11
1 -43 67 -36 74 13 12 21 5 32 -25z m-1599 11 c0 -5 -2 -10 -4 -10 -3 0 -8 5
-11 10 -3 6 -1 10 4 10 6 0 11 -4 11 -10z m435 -21 c10 -43 -3 -49 -30 -15
-27 33 -26 41 4 43 14 1 21 -6 26 -28z m1875 21 c0 -5 -4 -10 -10 -10 -5 0
-10 5 -10 10 0 6 5 10 10 10 6 0 10 -4 10 -10z m-2406 -15 c3 -8 1 -15 -4 -15
-6 0 -10 7 -10 15 0 8 2 15 4 15 2 0 6 -7 10 -15z m66 -5 c6 -11 16 -17 25
-14 8 4 15 1 15 -5 0 -6 -6 -11 -12 -11 -8 -1 -6 -6 5 -14 20 -16 22 -26 4
-26 -26 0 -84 70 -70 84 11 11 22 6 33 -14z m154 -12 c20 -39 20 -48 1 -48
-15 0 -46 59 -38 73 9 15 22 6 37 -25z m1173 10 c-3 -8 -6 -5 -6 6 -1 11 2 17
5 13 3 -3 4 -12 1 -19z m363 -9 c0 -6 -4 -7 -10 -4 -5 3 -10 11 -10 16 0 6 5
7 10 4 6 -3 10 -11 10 -16z m71 -2 c-13 -13 -26 -3 -16 12 3 6 11 8 17 5 6 -4
6 -10 -1 -17z m-981 -13 c0 -8 -4 -14 -9 -14 -11 0 -22 26 -14 34 9 9 23 -3
23 -20z m600 10 c0 -8 -5 -12 -10 -9 -6 4 -8 11 -5 16 9 14 15 11 15 -7z m120
12 c0 -11 -19 -15 -25 -6 -3 5 1 10 9 10 9 0 16 -2 16 -4z m303 -16 c-3 -11
-9 -17 -15 -14 -5 3 -4 12 3 20 16 19 18 18 12 -6z m-2943 -11 c0 -5 -4 -9
-10 -9 -5 0 -10 7 -10 16 0 8 5 12 10 9 6 -3 10 -10 10 -16z m2870 0 c0 -6 -4
-7 -10 -4 -5 3 -10 11 -10 16 0 6 5 7 10 4 6 -3 10 -11 10 -16z m450 6 c11
-13 10 -14 -4 -9 -9 3 -16 10 -16 15 0 13 6 11 20 -6z m-260 -10 c0 -2 -6 -5
-13 -8 -8 -3 -14 1 -14 8 0 7 6 11 14 8 7 -3 13 -6 13 -8z m-3853 -27 c-3 -7
-5 -2 -5 12 0 14 2 19 5 13 2 -7 2 -19 0 -25z m1363 -40 c-1 -98 -1 -98 26
-98 13 0 24 -4 24 -10 0 -5 7 -10 15 -10 8 0 15 5 15 10 0 15 40 12 41 -2 0
-10 2 -10 6 0 10 24 30 12 29 -18 -1 -26 -5 -30 -29 -30 -18 0 -26 4 -21 11 4
8 1 8 -13 1 -10 -6 -37 -12 -58 -14 l-40 -3 -6 53 c-4 29 -12 59 -18 66 -13
15 -12 98 0 90 4 -2 10 0 14 6 13 21 16 8 15 -52z m35 -11 c5 -48 4 -57 -9
-57 -13 0 -16 13 -16 67 0 81 16 75 25 -10z m890 63 c-3 -5 -11 -10 -16 -10
-6 0 -7 5 -4 10 3 6 11 10 16 10 6 0 7 -4 4 -10z m272 -16 c-3 -3 -12 -4 -19
-1 -8 3 -5 6 6 6 11 1 17 -2 13 -5z m1112 -8 c9 -11 8 -15 -5 -20 -23 -9 -24
-8 -24 14 0 23 13 26 29 6z m-271 -10 c-17 -12 -17 -14 0 -30 10 -9 24 -16 30
-16 7 0 12 -4 12 -10 0 -26 -47 -4 -65 31 -20 37 -19 39 13 39 24 -1 25 -2 10
-14z m-1881 -12 c-3 -3 -12 -4 -19 -1 -8 3 -5 6 6 6 11 1 17 -2 13 -5z m1530
-26 c-3 -7 -5 -2 -5 12 0 14 2 19 5 13 2 -7 2 -19 0 -25z m213 12 c0 -13 -5
-18 -15 -14 -16 7 -19 17 -8 27 12 13 23 7 23 -13z m815 10 c3 -5 2 -10 -4
-10 -6 0 -8 -7 -4 -16 4 -10 -1 -17 -16 -21 -11 -3 -21 -12 -21 -21 0 -12 -3
-13 -12 -4 -9 9 -9 15 -1 23 6 6 9 18 6 25 -3 8 1 14 11 14 9 0 16 5 16 10 0
6 4 10 9 10 6 0 13 -4 16 -10z m-4289 -12 c4 -6 3 -8 -4 -4 -6 3 -13 2 -17 -4
-9 -14 -22 -13 -28 3 -6 16 39 21 49 5z m2489 -6 c-3 -3 -11 0 -18 7 -9 10 -8
11 6 5 10 -3 15 -9 12 -12z m465 -2 c0 -5 -4 -10 -10 -10 -5 0 -10 5 -10 10 0
6 5 10 10 10 6 0 10 -4 10 -10z m869 -22 l11 -33 -25 29 c-29 34 -30 36 -11
36 8 0 19 -15 25 -32z m251 22 c0 -5 -7 -7 -15 -4 -8 4 -15 8 -15 10 0 2 7 4
15 4 8 0 15 -4 15 -10z m-1895 -10 c3 -5 2 -10 -4 -10 -5 0 -13 5 -16 10 -3 6
-2 10 4 10 5 0 13 -4 16 -10z m1779 -25 c20 -26 23 -35 12 -35 -15 0 -56 45
-56 61 0 19 19 8 44 -26z m-2109 12 c8 -9 10 -19 4 -28 -7 -11 -11 -10 -23 6
-9 11 -16 23 -16 28 0 12 20 8 35 -6z m151 -33 c11 -39 5 -54 -21 -54 -5 0 -4
4 3 8 9 6 10 15 3 33 -5 13 -10 17 -10 10 -1 -10 -4 -12 -11 -5 -12 12 -1 56
14 51 6 -2 16 -21 22 -43z m704 42 c0 -2 -7 -6 -15 -10 -8 -3 -15 -1 -15 4 0
6 7 10 15 10 8 0 15 -2 15 -4z m-1010 -21 c-14 -16 -60 -21 -60 -6 0 9 22 16
59 20 11 1 11 -2 1 -14z m829 -21 c-10 -12 -14 -12 -20 -2 -4 7 -3 16 4 20 18
11 29 -2 16 -18z m-459 7 c0 -12 -20 -25 -27 -18 -7 7 6 27 18 27 5 0 9 -4 9
-9z m-280 -33 c0 -18 -2 -20 -9 -8 -6 8 -7 18 -5 22 9 14 14 9 14 -14z m320
-9 c0 -17 -4 -28 -10 -24 -5 3 -10 17 -10 31 0 13 5 24 10 24 6 0 10 -14 10
-31z m122 22 c-11 -7 -11 -9 2 -14 10 -4 16 -1 16 8 0 15 20 22 20 8 0 -5 3
-18 6 -30 6 -21 4 -22 -32 -16 -22 3 -43 9 -47 13 -14 12 5 40 27 40 15 0 17
-3 8 -9z m654 -25 c3 -24 -10 -19 -23 9 -10 22 -9 24 5 16 8 -5 17 -16 18 -25z
m939 24 c3 -5 1 -10 -4 -10 -6 0 -11 5 -11 10 0 6 2 10 4 10 3 0 8 -4 11 -10z
m-1975 -28 c-6 -2 -10 -11 -10 -20 0 -8 -2 -13 -5 -10 -4 3 -3 18 1 33 5 20 9
23 15 13 5 -7 4 -14 -1 -16z m1370 24 c0 -3 -4 -8 -10 -11 -5 -3 -10 -1 -10 4
0 6 5 11 10 11 6 0 10 -2 10 -4z m360 -17 c0 -5 -7 -9 -15 -9 -8 0 -15 7 -15
15 0 9 6 12 15 9 8 -4 15 -10 15 -15z m330 -3 c0 -23 -13 -56 -21 -56 -5 0 -4
11 1 24 11 29 3 39 -20 26 -18 -10 -30 -4 -30 15 0 7 13 9 35 7 19 -2 35 -9
35 -16z m-1470 -6 c0 -5 -5 -10 -11 -10 -5 0 -7 5 -4 10 3 6 8 10 11 10 2 0 4
-4 4 -10z m1540 6 c0 -11 -19 -15 -25 -6 -3 5 1 10 9 10 9 0 16 -2 16 -4z
m-770 -22 c0 -8 -5 -12 -10 -9 -6 4 -8 11 -5 16 9 14 15 11 15 -7z m72 -12
c-1 -7 7 -22 18 -34 11 -12 20 -27 20 -32 0 -6 -10 2 -21 17 -17 22 -24 25
-35 16 -20 -17 -38 3 -29 31 5 15 13 20 28 18 12 -2 21 -9 19 -16z m352 -18
c26 -26 31 -36 21 -41 -8 -3 -15 -12 -15 -20 0 -17 -22 -13 -28 5 -2 7 3 12
12 12 21 0 20 4 -9 36 -22 24 -32 44 -21 44 2 0 20 -16 40 -36z m-2172 19 c-6
-2 -10 -9 -7 -13 3 -5 1 -11 -5 -15 -5 -3 -10 0 -10 8 0 17 10 27 24 26 6 0 5
-3 -2 -6z m778 0 c0 -5 -12 -16 -26 -27 l-26 -19 17 27 c16 25 35 35 35 19z
m468 -17 c3 -13 -1 -17 -14 -14 -11 2 -20 11 -22 22 -3 13 1 17 14 14 11 -2
20 -11 22 -22z m-1284 -13 c-7 -36 -14 -47 -25 -36 -9 9 10 63 23 63 4 0 4
-12 2 -27z m1114 5 c-2 -6 -10 -14 -16 -16 -7 -2 -10 2 -6 12 7 18 28 22 22 4z
m-2117 -7 c-10 -7 -11 -10 0 -16 8 -5 -9 -19 -52 -41 -75 -39 -89 -41 -89 -14
0 12 12 26 32 36 56 29 145 58 109 35z m1556 -13 c-3 -8 -6 -5 -6 6 -1 11 2
17 5 13 3 -3 4 -12 1 -19z m1143 -14 c0 -12 -2 -12 -14 -2 -8 7 -12 16 -9 21
7 11 23 -2 23 -19z m590 16 c0 -5 -2 -10 -4 -10 -3 0 -8 5 -11 10 -3 6 -1 10
4 10 6 0 11 -4 11 -10z m-2330 -10 c0 -5 -2 -10 -4 -10 -3 0 -8 5 -11 10 -3 6
-1 10 4 10 6 0 11 -4 11 -10z m454 -10 c3 -11 9 -29 12 -40 3 -11 2 -20 -3
-20 -9 0 -33 48 -33 67 0 20 18 15 24 -7z m226 -42 c0 -5 -11 -8 -25 -8 -14 0
-25 6 -25 13 0 8 -3 7 -10 -3 -13 -22 -23 -5 -11 19 11 19 12 19 41 3 16 -9
30 -20 30 -24z m1646 -36 c-13 -12 -17 8 -9 44 l8 39 3 -39 c2 -21 1 -41 -2
-44z m184 58 c-8 -5 -18 -6 -24 -3 -5 4 -1 10 10 13 24 9 34 2 14 -10z m45 10
c3 -5 1 -10 -4 -10 -6 0 -11 5 -11 10 0 6 2 10 4 10 3 0 8 -4 11 -10z m-1708
-27 c10 -31 6 -63 -8 -63 -7 0 -13 24 -7 33 1 1 -4 12 -10 23 -11 20 -7 34 9
34 4 0 11 -12 16 -27z m683 17 c0 -5 -2 -10 -4 -10 -3 0 -8 5 -11 10 -3 6 -1
10 4 10 6 0 11 -4 11 -10z m-1693 -22 c-3 -8 -6 -5 -6 6 -1 11 2 17 5 13 3 -3
4 -12 1 -19z m2096 -9 c-9 -9 -12 -7 -10 9 1 14 5 18 11 12 7 -7 6 -14 -1 -21z
m47 23 c0 -5 -7 -17 -15 -28 -15 -19 -20 -8 -9 20 6 17 24 22 24 8z m-1640
-73 c0 -25 4 -29 27 -29 29 0 24 -12 -7 -17 -22 -3 -50 32 -50 64 0 12 -5 25
-10 28 -6 4 -7 11 -4 17 11 18 44 -30 44 -63z m660 61 c0 -5 -4 -10 -10 -10
-5 0 -10 5 -10 10 0 6 5 10 10 10 6 0 10 -4 10 -10z m-2117 -14 c3 -8 0 -17
-8 -20 -9 -3 -13 2 -12 15 2 22 13 25 20 5z m2300 -16 c-6 -24 -19 -34 -28
-21 -7 12 16 52 26 45 4 -2 5 -13 2 -24z m-1466 0 c-30 -24 -37 -25 -37 -4 0
8 4 13 8 10 4 -2 14 -1 22 5 28 17 33 9 7 -11z m2703 16 c0 -11 -19 -15 -25
-6 -3 5 1 10 9 10 9 0 16 -2 16 -4z m-1976 -45 c-8 -9 -22 12 -17 26 6 15 7
14 13 -3 4 -10 6 -21 4 -23z m1346 -46 c0 -25 -17 -9 -29 27 l-11 32 20 -21
c11 -12 20 -29 20 -38z m-365 35 c3 -5 1 -10 -4 -10 -6 0 -11 5 -11 10 0 6 2
10 4 10 3 0 8 -4 11 -10z"/>
<path d="M3557 3422 l-48 -16 3 -50 3 -51 55 4 c30 1 56 4 56 5 1 0 4 29 6 64
5 71 5 71 -75 44z"/>
<path d="M3395 3376 c-48 -12 -50 -13 -50 -47 l0 -34 53 1 c29 1 55 3 57 5 8
10 9 82 0 84 -5 2 -32 -3 -60 -9z"/>
<path d="M2957 3353 c-16 -15 -6 -44 19 -53 32 -12 44 -6 44 25 0 28 -44 48
-63 28z"/>
<path d="M3190 3320 c0 -43 6 -46 69 -34 27 6 31 10 31 40 l0 34 -50 0 -50 0
0 -40z"/>
<path d="M3060 3321 c0 -24 5 -31 30 -36 39 -8 50 0 50 36 0 27 -2 29 -40 29
-38 0 -40 -2 -40 -29z"/>
<path d="M2950 3245 c0 -24 29 -45 61 -45 10 0 3 39 -10 51 -3 4 -16 10 -28
14 -20 5 -23 3 -23 -20z"/>
<path d="M3385 3251 c-33 -5 -40 -10 -43 -31 -3 -36 9 -49 40 -43 17 3 35 18
48 40 29 49 32 46 -45 34z"/>
<path d="M3064 3235 c-12 -29 4 -43 53 -47 26 -3 49 -3 51 -2 2 1 -8 13 -22
27 -31 32 -74 43 -82 22z"/>
<path d="M3195 3230 c-3 -5 1 -10 9 -10 9 0 16 5 16 10 0 6 -4 10 -9 10 -6 0
-13 -4 -16 -10z"/>
<path d="M3237 3198 c-10 -5 -15 -13 -12 -19 8 -12 85 -12 85 0 0 15 -55 30
-73 19z"/>
<path d="M3190 3140 c-14 -26 0 -53 58 -107 25 -24 47 -43 47 -43 10 0 96 124
97 140 3 21 -1 22 -94 26 -89 4 -98 2 -108 -16z"/>
<path d="M3486 3054 c-9 -22 3 -32 14 -14 12 19 12 30 1 30 -5 0 -12 -7 -15
-16z"/>
<path d="M3336 2999 c-31 -44 -31 -51 2 -43 15 4 23 17 28 41 3 18 5 36 3 38
-2 2 -17 -15 -33 -36z"/>
<path d="M4675 3054 c-4 -31 -9 -64 -12 -73 -4 -11 -3 -13 5 -6 14 13 33 118
22 128 -4 5 -11 -17 -15 -49z"/>
<path d="M4260 3049 c-14 -53 -5 -63 15 -16 17 42 19 57 5 57 -5 0 -14 -18
-20 -41z"/>
<path d="M2725 1950 c3 -5 8 -10 11 -10 2 0 4 5 4 10 0 6 -5 10 -11 10 -5 0
-7 -4 -4 -10z"/>
<path d="M2178 1653 c6 -2 18 -2 25 0 6 3 1 5 -13 5 -14 0 -19 -2 -12 -5z"/>
<path d="M950 1581 c0 -6 5 -13 10 -16 6 -3 10 1 10 9 0 9 -4 16 -10 16 -5 0
-10 -4 -10 -9z"/>
<path d="M2420 1315 c0 -8 5 -15 10 -15 6 0 10 7 10 15 0 8 -4 15 -10 15 -5 0
-10 -7 -10 -15z"/>
<path d="M2457 1290 c-3 -11 -1 -20 4 -20 5 0 9 9 9 20 0 11 -2 20 -4 20 -2 0
-6 -9 -9 -20z"/>
<path d="M3920 1200 c0 -5 4 -10 9 -10 6 0 13 5 16 10 3 6 -1 10 -9 10 -9 0
-16 -4 -16 -10z"/>
<path d="M3291 1088 c9 -7 19 -20 23 -28 3 -8 4 -4 3 10 -1 16 -9 26 -22 28
-18 3 -18 3 -4 -10z"/>
<path d="M3160 960 c0 -5 5 -10 10 -10 6 0 10 5 10 10 0 6 -4 10 -10 10 -5 0
-10 -4 -10 -10z"/>
<path d="M3020 925 c0 -9 5 -15 11 -13 6 2 11 8 11 13 0 5 -5 11 -11 13 -6 2
-11 -4 -11 -13z"/>
<path d="M2910 880 c0 -11 5 -20 10 -20 6 0 10 9 10 20 0 11 -4 20 -10 20 -5
0 -10 -9 -10 -20z"/>
<path d="M2382 678 c4 -67 22 -65 26 2 2 40 0 50 -13 50 -13 0 -15 -10 -13
-52z"/>
<path d="M2323 703 c-9 -3 -13 -25 -13 -63 0 -37 -5 -60 -12 -63 -10 -4 -10
-6 0 -6 35 -2 49 18 51 73 1 55 -4 67 -26 59z"/>
<path d="M4890 1023 c0 -2 8 -11 18 -21 15 -15 20 -16 31 -5 6 7 8 13 4 13 -4
0 -2 4 4 8 8 5 -1 8 -22 8 -19 0 -35 -1 -35 -3z"/>
<path d="M3453 704 c0 -16 6 -17 25 -5 11 6 9 9 -5 13 -12 3 -20 0 -20 -8z"/>
<path d="M4283 780 c1 -22 5 -24 27 -10 11 7 11 10 2 10 -7 0 -10 5 -7 10 3 6
-1 10 -9 10 -9 0 -14 -8 -13 -20z"/>
<path d="M5365 740 c3 -5 13 -10 21 -10 8 0 14 5 14 10 0 6 -9 10 -21 10 -11
0 -17 -4 -14 -10z"/>
<path d="M1858 633 c-17 -4 -33 -32 -23 -41 3 -3 5 0 5 6 0 7 6 12 14 12 8 0
18 5 21 11 9 13 4 16 -17 12z"/>
<path d="M2030 560 c0 -5 5 -10 10 -10 6 0 10 5 10 10 0 6 -4 10 -10 10 -5 0
-10 -4 -10 -10z"/>
<path d="M1802 481 c-9 -5 -12 -24 -10 -57 3 -46 5 -49 36 -55 36 -7 39 -4 18
17 -10 10 -13 29 -11 59 5 46 -4 55 -33 36z"/>
<path d="M1755 330 c-8 -13 5 -13 25 0 13 8 13 10 -2 10 -9 0 -20 -4 -23 -10z"/>
<path d="M1760 180 c0 -5 5 -10 10 -10 6 0 10 5 10 10 0 6 -4 10 -10 10 -5 0
-10 -4 -10 -10z"/>
<path d="M2046 245 c4 -8 7 -15 9 -15 2 0 5 7 9 15 3 9 0 15 -9 15 -9 0 -12
-6 -9 -15z"/>
<path d="M795 160 c-3 -6 1 -7 9 -4 18 7 21 14 7 14 -6 0 -13 -4 -16 -10z"/>
<path d="M55 1490 c-19 -8 -19 -9 3 -9 12 -1 25 -1 29 -2 4 0 9 4 11 10 4 13
-15 13 -43 1z"/>
<path d="M1298 323 c7 -3 16 -2 19 1 4 3 -2 6 -13 5 -11 0 -14 -3 -6 -6z"/>
<path d="M1248 226 c-26 -19 -26 -151 -1 -160 14 -6 12 -10 -12 -26 -45 -30
-66 -27 -60 9 9 49 10 130 2 138 -4 4 -20 0 -35 -9 -25 -16 -27 -22 -30 -97
-2 -66 0 -81 12 -81 8 0 16 6 18 12 4 10 10 10 32 0 35 -16 103 -16 109 1 4 9
6 9 6 0 1 -9 20 -13 61 -13 59 0 75 10 44 28 -15 8 -15 10 0 15 26 10 10 92
-25 127 -23 22 -30 25 -39 15 -18 -21 -40 -6 -40 26 0 31 -14 36 -42 15z"/>
<path d="M1036 23 c-6 -14 -5 -15 5 -6 7 7 10 15 7 18 -3 3 -9 -2 -12 -12z"/>
<path d="M1430 30 c-9 -6 -10 -10 -3 -10 6 0 15 5 18 10 8 12 4 12 -15 0z"/>
</g>
</svg>
